<svg xmlns="http://www.w3.org/2000/svg" width="122.38" height="95.594" viewBox="0 0 122.38 95.594">
  <defs>
    <style>
      .cls-1 {
        fill: #f1f1f1;
        fill-rule: evenodd;
      }
    </style>
  </defs>
  <path id="Forme_1" data-name="Forme 1" class="cls-1" d="M1918.26,620.857h44.73a3.06,3.06,0,0,0,0-6.12h-44.73A3.06,3.06,0,1,0,1918.26,620.857Zm44.73,42.689h-44.73a3.061,3.061,0,0,0,0,6.121h44.73A3.061,3.061,0,0,0,1962.99,663.546Zm58.85-.513-13.52-13.521a25.61,25.61,0,0,0-30.08-32.392v-9.492a13.239,13.239,0,0,0-13.22-13.229h-48.8A13.239,13.239,0,0,0,1903,607.628v69.147A13.239,13.239,0,0,0,1916.22,690h48.8a13.239,13.239,0,0,0,13.22-13.229v-9.7a25.924,25.924,0,0,0,13.03-.478l13.5,13.507A12.071,12.071,0,0,0,2021.84,663.033Zm-49.71,13.742a7.118,7.118,0,0,1-7.11,7.108h-48.8a7.115,7.115,0,0,1-7.1-7.108V607.628a7.115,7.115,0,0,1,7.1-7.108h48.8a7.118,7.118,0,0,1,7.11,7.108v11.71a25.713,25.713,0,0,0-11.35,11.668h-42.52a3.061,3.061,0,0,0,0,6.121h40.48a25.637,25.637,0,0,0-.48,4.971,26.17,26.17,0,0,0,.52,5.178h-40.52a3.061,3.061,0,0,0,0,6.121h42.62a25.713,25.713,0,0,0,11.25,11.46v11.918Zm11.71-15.208a19.47,19.47,0,1,1,13.77-5.7A19.329,19.329,0,0,1,1983.84,661.567Zm33.67,14.21a5.949,5.949,0,0,1-8.41,0l-11.87-11.867a25.457,25.457,0,0,0,4.7-3.718,25.131,25.131,0,0,0,3.71-4.7l11.87,11.872A5.958,5.958,0,0,1,2017.51,675.777Z" transform="translate(-1903 -594.406)"/>
</svg>
