<svg xmlns="http://www.w3.org/2000/svg" width="122.38" height="87.625" viewBox="0 0 122.38 87.625">
  <defs>
    <style>
      .cls-1 {
        fill: #f1f1f1;
        fill-rule: evenodd;
      }
    </style>
  </defs>
  <path id="Forme_2" data-name="Forme 2" class="cls-1" d="M2154.46,591H2058.6a13.27,13.27,0,0,0-13.26,13.247v61.136a13.27,13.27,0,0,0,13.26,13.247h95.86a13.27,13.27,0,0,0,13.26-13.247V604.246A13.27,13.27,0,0,0,2154.46,591Zm-66.26,48.463a13.023,13.023,0,1,1,13.03-13.023A13.046,13.046,0,0,1,2088.2,639.462Zm-10.23,3.152a19.129,19.129,0,0,0,22.82-1.77c0.05-.014.11-0.025,0.16-0.042l23.73-7.693v2.117l-18.29,15.387a3.076,3.076,0,0,0-1.08,2.632l1.87,19.27h-37.97l1.87-19.618A12.938,12.938,0,0,1,2077.97,642.614Zm83.63,22.768a7.143,7.143,0,0,1-7.14,7.133h-41.13l-1.77-18.259,18.15-15.269a3.059,3.059,0,0,0,1.09-2.339V628.9a3.057,3.057,0,0,0-4-2.907l-20.48,6.637A19.137,19.137,0,0,0,2088.2,607.3a19.114,19.114,0,0,0-14.98,31.044,19,19,0,0,0-8.23,13.971l-1.93,20.2h-4.46a7.149,7.149,0,0,1-7.14-7.133V604.246a7.149,7.149,0,0,1,7.14-7.133h95.86a7.143,7.143,0,0,1,7.14,7.133v61.136Zm-10.2-61.951h-29.78a3.057,3.057,0,0,0,0,6.113h29.78A3.057,3.057,0,1,0,2151.4,603.431Zm0,10.189h-29.78a3.057,3.057,0,0,0,0,6.114h29.78A3.057,3.057,0,1,0,2151.4,613.62Z" transform="translate(-2045.34 -591)"/>
</svg>
