<svg xmlns="http://www.w3.org/2000/svg" width="68" height="68" viewBox="0 0 68 68">
  <defs>
    <style>
      .cls-1 {
        fill: #fff;
        fill-rule: evenodd;
      }
    </style>
  </defs>
  <path id="Forme_20" data-name="Forme 20" class="cls-1" d="M9857,7097h4v-8h-4v8Zm-4-60v3.98h4V7045h4v-8h-8Zm0,64.02h4V7097h-4v4.02Zm4-12.02v-3.98h-4V7089h4Zm-4-40.02h4V7045h-4v3.98Zm0,36.04V7081h-4v4.02h4Zm0-44.04h-4V7045h4v-4.02Zm-8,64.02h8v-3.98h-8V7105Zm0-11.98h4V7089h-4v4.02Zm4-12.02v-3.98h-4V7081h4Zm0-36h-4v8h8v-4.02h-4V7045Zm-8,52v4.02h4V7097h-4Zm4-19.98V7073h-4v4.02h4Zm-4-20.04h4V7053h-4v3.98Zm-4,36.04V7097h4v-3.98h-4Zm4-20.02v-4h-4v4h4Zm-4-12h4v-4.02h-4V7061Zm-4,28v4.02h4V7089h-4Zm4-20v-4h-4v4h4Zm-8,16.02V7089h4v-3.98h-4Zm4-20.02v-16.02h-4V7065h4Zm-7.98,16v4.02H9829V7081h-3.98Zm0-12H9829v-4h-3.98v4Zm3.98-20.02V7045h-3.98v3.98H9829Zm-7.98,28.04V7081h4v-3.98h-4Zm0-4.02h4v-4h-4v4Zm4-28v-4.02h-4V7045h4Zm-8.02,48.02h4.02V7089H9817v4.02ZM9805,7073v4.02h16.02V7073H9805Zm8,24h4v-3.98h-4V7097Zm4-8v-3.98h-4V7089h4Zm0-44h-4v11.98h4V7045Zm4.02-4.02V7037H9805v3.98h4V7045h4v-4.02h8.02ZM9809,7101.02h4V7097h-4v4.02Zm0-8h4V7089h-4v4.02Zm4-12.02h-4v4.02h4V7081Zm-8,16h4v-3.98h-4V7097Zm4-8v-3.98h-4V7089h4Zm-8,16h8v-3.98h-8V7105Zm0-16v4.02h4V7089h-4Zm4-8h-4v4.02h4V7081Zm-4-12v4h4v-4h-4Zm12-8v-4.02h-12V7061h12Zm-16,36v4.02h4V7097h-4Zm4-11.98h-4V7089h4v-3.98Zm-4-20.02v4h4v-4h-4Zm-4,24v8h4v-8h-4Zm8-32.02V7053h-4v-4.02h-4V7065h4v-8.02h4Z" transform="translate(-9793 -7037)"/>
</svg>
