<svg xmlns="http://www.w3.org/2000/svg" xmlns:xlink="http://www.w3.org/1999/xlink" width="794" zoomAndPan="magnify" viewBox="0 0 595.5 842.249979" height="1123" preserveAspectRatio="xMidYMid meet" version="1.0"><defs><filter x="0%" y="0%" width="100%" height="100%" id="id1"><feColorMatrix values="0 0 0 0 1 0 0 0 0 1 0 0 0 0 1 0 0 0 1 0" color-interpolation-filters="sRGB"/></filter><mask id="id2"><g filter="url(#id1)"><rect x="-59.55" width="714.6" fill="#000000" y="-84.224998" height="1010.699974" fill-opacity="0.6471"/></g></mask><clipPath id="id3"><path d="M 0.5625 0.628906 L 570.53125 0.628906 L 570.53125 568.347656 L 0.5625 568.347656 Z M 0.5625 0.628906 " clip-rule="nonzero"/></clipPath><clipPath id="id4"><rect x="0" width="572" y="0" height="570"/></clipPath><clipPath id="id5"><path d="M 138.949219 92.183594 L 456.183594 92.183594 L 456.183594 181.429688 L 138.949219 181.429688 Z M 138.949219 92.183594 " clip-rule="nonzero"/></clipPath><clipPath id="id6"><path d="M 379.570312 118.074219 C 379.570312 118.84375 379.644531 119.605469 379.792969 120.359375 C 379.945312 121.113281 380.167969 121.84375 380.460938 122.554688 C 380.757812 123.265625 381.117188 123.941406 381.546875 124.578125 C 381.972656 125.21875 382.460938 125.8125 383.003906 126.355469 C 383.546875 126.898438 384.140625 127.382812 384.78125 127.808594 C 385.421875 128.238281 386.097656 128.597656 386.808594 128.890625 C 387.519531 129.1875 388.253906 129.410156 389.007812 129.558594 C 389.765625 129.707031 390.527344 129.785156 391.296875 129.785156 L 431.945312 129.785156 C 445.332031 129.785156 456.183594 141.140625 456.183594 155.148438 C 456.183594 169.160156 445.335938 180.511719 431.957031 180.519531 L 365.5 180.519531 L 365.5 166.460938 L 431.957031 166.460938 L 431.957031 166.683594 C 432.691406 166.648438 433.417969 166.546875 434.132812 166.371094 C 434.847656 166.199219 435.542969 165.960938 436.210938 165.65625 C 436.878906 165.351562 437.515625 164.984375 438.113281 164.558594 C 438.714844 164.132812 439.269531 163.652344 439.777344 163.121094 C 440.285156 162.589844 440.738281 162.011719 441.136719 161.394531 C 441.535156 160.777344 441.871094 160.128906 442.144531 159.445312 C 442.417969 158.761719 442.621094 158.0625 442.761719 157.339844 C 442.902344 156.617188 442.972656 155.890625 442.972656 155.152344 C 442.972656 154.417969 442.902344 153.691406 442.761719 152.96875 C 442.621094 152.246094 442.417969 151.546875 442.144531 150.863281 C 441.871094 150.179688 441.535156 149.53125 441.136719 148.914062 C 440.738281 148.292969 440.285156 147.71875 439.777344 147.1875 C 439.269531 146.65625 438.714844 146.175781 438.113281 145.75 C 437.515625 145.324219 436.878906 144.957031 436.210938 144.652344 C 435.542969 144.347656 434.847656 144.109375 434.132812 143.9375 C 433.417969 143.761719 432.691406 143.660156 431.957031 143.625 L 431.957031 143.832031 L 388.957031 143.832031 L 388.957031 143.722656 C 388.164062 143.648438 387.375 143.539062 386.59375 143.394531 C 385.808594 143.25 385.035156 143.070312 384.269531 142.855469 C 383.503906 142.636719 382.75 142.386719 382.007812 142.101562 C 381.265625 141.8125 380.539062 141.496094 379.824219 141.140625 C 379.113281 140.789062 378.417969 140.402344 377.738281 139.984375 C 377.0625 139.566406 376.40625 139.117188 375.769531 138.640625 C 375.132812 138.164062 374.523438 137.65625 373.933594 137.121094 C 373.34375 136.585938 372.78125 136.027344 372.246094 135.4375 C 371.710938 134.851562 371.199219 134.242188 370.722656 133.609375 C 370.242188 132.972656 369.789062 132.320312 369.371094 131.644531 C 368.953125 130.96875 368.566406 130.277344 368.210938 129.5625 C 367.855469 128.851562 367.535156 128.128906 367.246094 127.386719 C 366.957031 126.644531 366.703125 125.894531 366.488281 125.128906 C 366.269531 124.363281 366.085938 123.59375 365.941406 122.8125 C 365.792969 122.03125 365.683594 121.242188 365.609375 120.453125 C 365.535156 119.660156 365.5 118.867188 365.5 118.074219 C 365.5 117.277344 365.535156 116.484375 365.609375 115.695312 C 365.683594 114.902344 365.792969 114.117188 365.941406 113.335938 C 366.085938 112.554688 366.269531 111.78125 366.488281 111.019531 C 366.703125 110.253906 366.957031 109.5 367.246094 108.761719 C 367.535156 108.019531 367.855469 107.292969 368.210938 106.582031 C 368.566406 105.871094 368.953125 105.179688 369.371094 104.503906 C 369.789062 103.828125 370.242188 103.171875 370.722656 102.539062 C 371.199219 101.90625 371.710938 101.296875 372.246094 100.707031 C 372.78125 100.121094 373.34375 99.5625 373.933594 99.027344 C 374.523438 98.492188 375.132812 97.984375 375.769531 97.507812 C 376.40625 97.027344 377.0625 96.582031 377.738281 96.164062 C 378.417969 95.746094 379.113281 95.359375 379.824219 95.007812 C 380.539062 94.652344 381.265625 94.332031 382.007812 94.046875 C 382.75 93.761719 383.503906 93.507812 384.269531 93.292969 C 385.035156 93.078125 385.808594 92.894531 386.59375 92.75 C 387.375 92.605469 388.164062 92.496094 388.957031 92.425781 L 388.957031 92.3125 L 454.628906 92.3125 L 454.628906 106.367188 L 391.160156 106.367188 C 390.394531 106.375 389.636719 106.457031 388.890625 106.613281 C 388.140625 106.769531 387.414062 107 386.710938 107.296875 C 386.007812 107.59375 385.339844 107.957031 384.707031 108.386719 C 384.074219 108.816406 383.492188 109.300781 382.953125 109.84375 C 382.417969 110.386719 381.9375 110.976562 381.515625 111.613281 C 381.09375 112.25 380.738281 112.917969 380.445312 113.625 C 380.15625 114.332031 379.9375 115.058594 379.789062 115.808594 C 379.640625 116.554688 379.566406 117.3125 379.570312 118.074219 Z M 353.449219 157.882812 C 353.398438 158.640625 353.3125 159.394531 353.191406 160.144531 C 353.070312 160.894531 352.914062 161.640625 352.722656 162.375 C 352.53125 163.109375 352.308594 163.835938 352.046875 164.550781 C 351.789062 165.265625 351.496094 165.964844 351.171875 166.652344 C 350.84375 167.339844 350.488281 168.007812 350.097656 168.664062 C 349.710938 169.316406 349.292969 169.949219 348.84375 170.5625 C 348.394531 171.179688 347.917969 171.769531 347.414062 172.339844 C 346.910156 172.910156 346.378906 173.453125 345.824219 173.972656 C 345.269531 174.492188 344.6875 174.984375 344.085938 175.449219 C 343.484375 175.914062 342.863281 176.351562 342.21875 176.757812 C 341.574219 177.164062 340.914062 177.539062 340.234375 177.882812 C 339.558594 178.226562 338.863281 178.539062 338.15625 178.820312 C 337.449219 179.097656 336.726562 179.34375 335.996094 179.554688 C 335.265625 179.765625 334.527344 179.945312 333.777344 180.085938 C 333.03125 180.230469 332.277344 180.335938 331.519531 180.40625 C 330.761719 180.476562 330 180.515625 329.242188 180.515625 C 328.480469 180.515625 327.71875 180.476562 326.960938 180.40625 C 326.203125 180.335938 325.449219 180.230469 324.703125 180.085938 C 323.953125 179.945312 323.214844 179.765625 322.484375 179.554688 C 321.753906 179.34375 321.035156 179.097656 320.324219 178.820312 C 319.617188 178.539062 318.925781 178.226562 318.246094 177.882812 C 317.566406 177.539062 316.90625 177.164062 316.261719 176.757812 C 315.621094 176.351562 314.996094 175.914062 314.394531 175.449219 C 313.792969 174.984375 313.214844 174.492188 312.65625 173.972656 C 312.101562 173.453125 311.570312 172.910156 311.066406 172.339844 C 310.5625 171.769531 310.085938 171.179688 309.636719 170.5625 C 309.191406 169.949219 308.769531 169.316406 308.382812 168.664062 C 307.992188 168.007812 307.636719 167.339844 307.308594 166.652344 C 306.984375 165.964844 306.691406 165.265625 306.433594 164.550781 C 306.171875 163.835938 305.949219 163.109375 305.757812 162.375 C 305.566406 161.640625 305.410156 160.894531 305.289062 160.144531 C 305.167969 159.394531 305.082031 158.640625 305.03125 157.882812 L 305.003906 157.875 L 305.003906 114.953125 C 304.996094 114.289062 304.925781 113.636719 304.789062 112.988281 C 304.652344 112.339844 304.457031 111.710938 304.199219 111.101562 C 303.9375 110.492188 303.625 109.914062 303.25 109.367188 C 302.878906 108.820312 302.457031 108.3125 301.988281 107.847656 C 301.515625 107.382812 301.003906 106.96875 300.453125 106.601562 C 299.898438 106.234375 299.316406 105.929688 298.703125 105.675781 C 298.089844 105.425781 297.457031 105.234375 296.808594 105.105469 C 296.15625 104.976562 295.5 104.914062 294.839844 104.914062 C 294.175781 104.914062 293.519531 104.976562 292.867188 105.105469 C 292.21875 105.234375 291.585938 105.425781 290.972656 105.675781 C 290.359375 105.929688 289.777344 106.234375 289.226562 106.601562 C 288.671875 106.96875 288.160156 107.382812 287.691406 107.847656 C 287.21875 108.3125 286.796875 108.820312 286.425781 109.367188 C 286.054688 109.914062 285.738281 110.492188 285.480469 111.101562 C 285.222656 111.710938 285.023438 112.339844 284.886719 112.988281 C 284.753906 113.636719 284.679688 114.289062 284.675781 114.953125 L 284.675781 181.308594 L 270.609375 181.308594 L 270.609375 114.941406 L 270.636719 114.941406 C 270.683594 114.183594 270.769531 113.429688 270.890625 112.675781 C 271.011719 111.925781 271.167969 111.183594 271.355469 110.445312 C 271.546875 109.710938 271.773438 108.984375 272.03125 108.269531 C 272.292969 107.554688 272.582031 106.851562 272.910156 106.164062 C 273.234375 105.476562 273.589844 104.808594 273.980469 104.152344 C 274.367188 103.5 274.789062 102.867188 275.234375 102.25 C 275.683594 101.636719 276.160156 101.042969 276.664062 100.472656 C 277.167969 99.902344 277.699219 99.359375 278.253906 98.839844 C 278.8125 98.320312 279.390625 97.828125 279.992188 97.359375 C 280.59375 96.894531 281.21875 96.460938 281.859375 96.050781 C 282.503906 95.644531 283.164062 95.269531 283.84375 94.925781 C 284.523438 94.578125 285.214844 94.269531 285.925781 93.988281 C 286.632812 93.707031 287.351562 93.460938 288.085938 93.25 C 288.816406 93.039062 289.554688 92.863281 290.304688 92.71875 C 291.050781 92.578125 291.804688 92.46875 292.5625 92.398438 C 293.324219 92.328125 294.082031 92.292969 294.84375 92.292969 C 295.605469 92.292969 296.367188 92.328125 297.125 92.398438 C 297.882812 92.46875 298.636719 92.578125 299.382812 92.71875 C 300.132812 92.863281 300.871094 93.039062 301.605469 93.25 C 302.335938 93.460938 303.054688 93.707031 303.761719 93.988281 C 304.472656 94.269531 305.164062 94.578125 305.84375 94.925781 C 306.523438 95.269531 307.183594 95.644531 307.828125 96.050781 C 308.472656 96.460938 309.09375 96.894531 309.695312 97.359375 C 310.296875 97.828125 310.878906 98.320312 311.433594 98.839844 C 311.988281 99.359375 312.519531 99.902344 313.023438 100.472656 C 313.527344 101.042969 314.003906 101.636719 314.453125 102.25 C 314.902344 102.867188 315.320312 103.5 315.707031 104.152344 C 316.097656 104.808594 316.453125 105.476562 316.777344 106.164062 C 317.105469 106.851562 317.398438 107.554688 317.65625 108.269531 C 317.914062 108.984375 318.140625 109.710938 318.332031 110.445312 C 318.523438 111.183594 318.675781 111.925781 318.796875 112.675781 C 318.917969 113.429688 319.003906 114.183594 319.054688 114.941406 L 319.078125 114.941406 L 319.078125 157.878906 C 319.085938 158.539062 319.15625 159.195312 319.292969 159.839844 C 319.425781 160.488281 319.625 161.117188 319.882812 161.726562 C 320.140625 162.335938 320.457031 162.914062 320.828125 163.460938 C 321.203125 164.007812 321.625 164.515625 322.09375 164.980469 C 322.566406 165.445312 323.078125 165.859375 323.628906 166.226562 C 324.183594 166.59375 324.765625 166.898438 325.378906 167.152344 C 325.992188 167.402344 326.621094 167.59375 327.273438 167.722656 C 327.921875 167.847656 328.578125 167.914062 329.242188 167.914062 C 329.90625 167.914062 330.5625 167.847656 331.210938 167.722656 C 331.863281 167.59375 332.492188 167.402344 333.105469 167.152344 C 333.71875 166.898438 334.300781 166.59375 334.855469 166.226562 C 335.40625 165.859375 335.917969 165.445312 336.390625 164.980469 C 336.863281 164.515625 337.28125 164.007812 337.65625 163.460938 C 338.027344 162.914062 338.34375 162.335938 338.601562 161.726562 C 338.859375 161.117188 339.058594 160.488281 339.191406 159.839844 C 339.328125 159.195312 339.398438 158.539062 339.40625 157.878906 L 339.40625 92.3125 L 353.488281 92.3125 L 353.488281 157.875 Z M 242.164062 114.953125 C 242.171875 114.28125 242.113281 113.617188 241.988281 112.957031 C 241.863281 112.296875 241.675781 111.65625 241.425781 111.035156 C 241.171875 110.410156 240.859375 109.820312 240.492188 109.261719 C 240.121094 108.699219 239.703125 108.179688 239.230469 107.703125 C 238.757812 107.226562 238.242188 106.800781 237.683594 106.425781 C 237.125 106.050781 236.539062 105.734375 235.917969 105.476562 C 235.296875 105.214844 234.65625 105.019531 234 104.890625 C 233.339844 104.757812 232.675781 104.691406 232 104.691406 C 231.328125 104.691406 230.664062 104.757812 230.003906 104.890625 C 229.347656 105.019531 228.707031 105.214844 228.085938 105.476562 C 227.464844 105.734375 226.878906 106.050781 226.320312 106.425781 C 225.761719 106.800781 225.246094 107.226562 224.773438 107.703125 C 224.300781 108.179688 223.882812 108.699219 223.511719 109.261719 C 223.140625 109.820312 222.832031 110.410156 222.578125 111.035156 C 222.328125 111.65625 222.140625 112.296875 222.015625 112.957031 C 221.890625 113.617188 221.832031 114.28125 221.839844 114.953125 L 221.839844 157.882812 L 221.808594 157.882812 C 221.757812 158.640625 221.675781 159.394531 221.554688 160.148438 C 221.433594 160.898438 221.277344 161.640625 221.085938 162.378906 C 220.894531 163.113281 220.671875 163.839844 220.410156 164.554688 C 220.152344 165.269531 219.859375 165.96875 219.535156 166.65625 C 219.210938 167.34375 218.851562 168.015625 218.464844 168.671875 C 218.074219 169.324219 217.65625 169.957031 217.207031 170.574219 C 216.757812 171.1875 216.285156 171.78125 215.777344 172.351562 C 215.273438 172.917969 214.746094 173.464844 214.1875 173.984375 C 213.632812 174.503906 213.054688 174.996094 212.453125 175.460938 C 211.847656 175.929688 211.226562 176.363281 210.582031 176.773438 C 209.941406 177.179688 209.277344 177.554688 208.601562 177.898438 C 207.921875 178.242188 207.226562 178.554688 206.519531 178.835938 C 205.8125 179.113281 205.089844 179.359375 204.359375 179.574219 C 203.628906 179.785156 202.886719 179.960938 202.140625 180.105469 C 201.390625 180.246094 200.636719 180.351562 199.878906 180.425781 C 199.121094 180.496094 198.363281 180.53125 197.601562 180.53125 C 196.839844 180.53125 196.078125 180.496094 195.320312 180.425781 C 194.5625 180.351562 193.808594 180.246094 193.058594 180.105469 C 192.3125 179.960938 191.570312 179.785156 190.839844 179.574219 C 190.109375 179.359375 189.390625 179.113281 188.679688 178.835938 C 187.972656 178.554688 187.277344 178.242188 186.601562 177.898438 C 185.921875 177.554688 185.261719 177.179688 184.617188 176.773438 C 183.972656 176.363281 183.351562 175.929688 182.746094 175.460938 C 182.144531 174.996094 181.566406 174.503906 181.011719 173.984375 C 180.457031 173.464844 179.925781 172.917969 179.421875 172.351562 C 178.917969 171.78125 178.441406 171.1875 177.992188 170.574219 C 177.542969 169.957031 177.125 169.324219 176.734375 168.671875 C 176.347656 168.015625 175.988281 167.34375 175.664062 166.65625 C 175.339844 165.96875 175.046875 165.269531 174.789062 164.554688 C 174.527344 163.839844 174.304688 163.113281 174.113281 162.378906 C 173.921875 161.640625 173.765625 160.898438 173.644531 160.148438 C 173.527344 159.394531 173.441406 158.640625 173.390625 157.882812 L 173.355469 157.882812 L 173.355469 114.953125 C 173.347656 114.289062 173.277344 113.636719 173.140625 112.988281 C 173.007812 112.339844 172.808594 111.710938 172.550781 111.101562 C 172.292969 110.492188 171.976562 109.914062 171.605469 109.367188 C 171.230469 108.820312 170.8125 108.3125 170.339844 107.847656 C 169.867188 107.382812 169.355469 106.96875 168.804688 106.601562 C 168.25 106.238281 167.667969 105.929688 167.054688 105.679688 C 166.441406 105.425781 165.8125 105.238281 165.160156 105.109375 C 164.511719 104.980469 163.855469 104.917969 163.191406 104.917969 C 162.527344 104.917969 161.871094 104.980469 161.222656 105.109375 C 160.574219 105.238281 159.941406 105.425781 159.328125 105.679688 C 158.714844 105.929688 158.132812 106.238281 157.578125 106.601562 C 157.027344 106.96875 156.515625 107.382812 156.042969 107.847656 C 155.574219 108.3125 155.152344 108.820312 154.777344 109.367188 C 154.40625 109.914062 154.09375 110.492188 153.832031 111.101562 C 153.574219 111.710938 153.378906 112.339844 153.242188 112.988281 C 153.105469 113.636719 153.035156 114.289062 153.027344 114.953125 L 153.027344 181.296875 L 138.957031 181.296875 L 138.957031 114.953125 L 138.984375 114.953125 C 139.035156 114.191406 139.121094 113.4375 139.242188 112.6875 C 139.363281 111.9375 139.515625 111.191406 139.707031 110.457031 C 139.898438 109.71875 140.125 108.996094 140.382812 108.28125 C 140.640625 107.566406 140.933594 106.863281 141.261719 106.175781 C 141.585938 105.488281 141.941406 104.816406 142.332031 104.164062 C 142.71875 103.507812 143.136719 102.875 143.585938 102.261719 C 144.035156 101.644531 144.511719 101.054688 145.015625 100.484375 C 145.519531 99.914062 146.050781 99.371094 146.605469 98.847656 C 147.160156 98.328125 147.742188 97.835938 148.34375 97.371094 C 148.945312 96.90625 149.566406 96.46875 150.210938 96.0625 C 150.855469 95.65625 151.515625 95.28125 152.195312 94.933594 C 152.875 94.589844 153.566406 94.277344 154.277344 94 C 154.984375 93.71875 155.703125 93.472656 156.433594 93.261719 C 157.167969 93.050781 157.90625 92.871094 158.65625 92.730469 C 159.402344 92.585938 160.15625 92.480469 160.914062 92.410156 C 161.671875 92.335938 162.433594 92.300781 163.195312 92.300781 C 163.957031 92.300781 164.714844 92.335938 165.476562 92.410156 C 166.234375 92.480469 166.984375 92.585938 167.734375 92.730469 C 168.484375 92.871094 169.222656 93.050781 169.953125 93.261719 C 170.6875 93.472656 171.40625 93.71875 172.113281 94 C 172.820312 94.277344 173.515625 94.589844 174.195312 94.933594 C 174.875 95.28125 175.535156 95.65625 176.179688 96.0625 C 176.820312 96.46875 177.445312 96.90625 178.046875 97.371094 C 178.648438 97.835938 179.226562 98.328125 179.785156 98.847656 C 180.339844 99.371094 180.871094 99.914062 181.375 100.484375 C 181.878906 101.054688 182.355469 101.644531 182.804688 102.261719 C 183.25 102.875 183.671875 103.507812 184.058594 104.164062 C 184.449219 104.816406 184.804688 105.488281 185.128906 106.175781 C 185.457031 106.863281 185.746094 107.566406 186.007812 108.28125 C 186.265625 108.996094 186.492188 109.71875 186.679688 110.457031 C 186.871094 111.191406 187.027344 111.9375 187.148438 112.6875 C 187.269531 113.4375 187.355469 114.191406 187.402344 114.953125 L 187.433594 114.953125 L 187.433594 157.882812 C 187.433594 158.546875 187.5 159.207031 187.628906 159.863281 C 187.761719 160.515625 187.953125 161.148438 188.207031 161.765625 C 188.464844 162.382812 188.777344 162.964844 189.148438 163.519531 C 189.519531 164.074219 189.941406 164.585938 190.410156 165.058594 C 190.882812 165.527344 191.398438 165.949219 191.953125 166.320312 C 192.507812 166.691406 193.09375 167.003906 193.707031 167.257812 C 194.324219 167.511719 194.960938 167.703125 195.617188 167.835938 C 196.269531 167.964844 196.929688 168.03125 197.597656 168.03125 C 198.265625 168.03125 198.925781 167.964844 199.582031 167.835938 C 200.234375 167.703125 200.871094 167.511719 201.488281 167.257812 C 202.105469 167.003906 202.691406 166.691406 203.246094 166.320312 C 203.800781 165.949219 204.3125 165.527344 204.785156 165.058594 C 205.257812 164.585938 205.679688 164.074219 206.050781 163.519531 C 206.421875 162.964844 206.734375 162.382812 206.988281 161.765625 C 207.246094 161.148438 207.4375 160.515625 207.566406 159.863281 C 207.699219 159.207031 207.761719 158.546875 207.761719 157.882812 L 207.761719 114.953125 L 207.792969 114.953125 C 207.84375 114.191406 207.929688 113.4375 208.046875 112.6875 C 208.167969 111.9375 208.324219 111.191406 208.515625 110.457031 C 208.707031 109.71875 208.929688 108.996094 209.191406 108.28125 C 209.449219 107.566406 209.742188 106.863281 210.066406 106.175781 C 210.394531 105.488281 210.75 104.816406 211.136719 104.164062 C 211.527344 103.507812 211.945312 102.875 212.394531 102.261719 C 212.84375 101.644531 213.320312 101.054688 213.824219 100.484375 C 214.328125 99.914062 214.859375 99.371094 215.414062 98.847656 C 215.96875 98.328125 216.546875 97.835938 217.152344 97.371094 C 217.753906 96.90625 218.375 96.46875 219.019531 96.0625 C 219.664062 95.65625 220.324219 95.28125 221.003906 94.933594 C 221.679688 94.589844 222.375 94.277344 223.082031 94 C 223.792969 93.71875 224.511719 93.472656 225.242188 93.261719 C 225.972656 93.050781 226.714844 92.871094 227.460938 92.730469 C 228.210938 92.585938 228.964844 92.480469 229.722656 92.410156 C 230.480469 92.335938 231.242188 92.300781 232.003906 92.300781 C 232.765625 92.300781 233.523438 92.335938 234.28125 92.410156 C 235.039062 92.480469 235.792969 92.585938 236.542969 92.730469 C 237.289062 92.871094 238.03125 93.050781 238.761719 93.261719 C 239.492188 93.472656 240.214844 93.71875 240.921875 94 C 241.628906 94.277344 242.324219 94.589844 243.003906 94.933594 C 243.679688 95.28125 244.34375 95.65625 244.984375 96.0625 C 245.628906 96.46875 246.25 96.90625 246.855469 97.371094 C 247.457031 97.835938 248.035156 98.328125 248.589844 98.847656 C 249.148438 99.371094 249.675781 99.914062 250.179688 100.484375 C 250.6875 101.054688 251.164062 101.644531 251.609375 102.261719 C 252.058594 102.875 252.476562 103.507812 252.867188 104.164062 C 253.253906 104.816406 253.613281 105.488281 253.9375 106.175781 C 254.261719 106.863281 254.554688 107.566406 254.8125 108.28125 C 255.074219 108.996094 255.296875 109.71875 255.488281 110.457031 C 255.679688 111.191406 255.835938 111.9375 255.957031 112.6875 C 256.078125 113.4375 256.160156 114.191406 256.210938 114.953125 L 256.242188 114.953125 L 256.242188 181.296875 L 242.164062 181.296875 Z M 242.164062 114.953125 " clip-rule="nonzero"/></clipPath><linearGradient x1="-0.0000000308906" gradientTransform="matrix(317.228889, 0, 0, 89.014857, 138.956209, 92.291844)" y1="0" x2="0.999992" gradientUnits="userSpaceOnUse" y2="0" id="id7"><stop stop-opacity="1" stop-color="rgb(100%, 43.899536%, 0.39978%)" offset="0"/><stop stop-opacity="1" stop-color="rgb(100%, 43.835449%, 0.546265%)" offset="0.015625"/><stop stop-opacity="1" stop-color="rgb(100%, 43.707275%, 0.839233%)" offset="0.03125"/><stop stop-opacity="1" stop-color="rgb(100%, 43.579102%, 1.133728%)" offset="0.046875"/><stop stop-opacity="1" stop-color="rgb(100%, 43.450928%, 1.426697%)" offset="0.0625"/><stop stop-opacity="1" stop-color="rgb(100%, 43.322754%, 1.721191%)" offset="0.078125"/><stop stop-opacity="1" stop-color="rgb(100%, 43.19458%, 2.01416%)" offset="0.09375"/><stop stop-opacity="1" stop-color="rgb(100%, 43.066406%, 2.308655%)" offset="0.109375"/><stop stop-opacity="1" stop-color="rgb(100%, 42.938232%, 2.601624%)" offset="0.125"/><stop stop-opacity="1" stop-color="rgb(100%, 42.810059%, 2.896118%)" offset="0.140625"/><stop stop-opacity="1" stop-color="rgb(100%, 42.681885%, 3.189087%)" offset="0.15625"/><stop stop-opacity="1" stop-color="rgb(100%, 42.553711%, 3.483582%)" offset="0.171875"/><stop stop-opacity="1" stop-color="rgb(100%, 42.425537%, 3.77655%)" offset="0.1875"/><stop stop-opacity="1" stop-color="rgb(100%, 42.297363%, 4.071045%)" offset="0.203125"/><stop stop-opacity="1" stop-color="rgb(100%, 42.169189%, 4.364014%)" offset="0.21875"/><stop stop-opacity="1" stop-color="rgb(100%, 42.041016%, 4.658508%)" offset="0.234375"/><stop stop-opacity="1" stop-color="rgb(100%, 41.912842%, 4.951477%)" offset="0.25"/><stop stop-opacity="1" stop-color="rgb(100%, 41.784668%, 5.245972%)" offset="0.265625"/><stop stop-opacity="1" stop-color="rgb(100%, 41.656494%, 5.53894%)" offset="0.28125"/><stop stop-opacity="1" stop-color="rgb(100%, 41.52832%, 5.833435%)" offset="0.296875"/><stop stop-opacity="1" stop-color="rgb(100%, 41.400146%, 6.126404%)" offset="0.3125"/><stop stop-opacity="1" stop-color="rgb(100%, 41.271973%, 6.420898%)" offset="0.328125"/><stop stop-opacity="1" stop-color="rgb(100%, 41.143799%, 6.713867%)" offset="0.34375"/><stop stop-opacity="1" stop-color="rgb(100%, 41.017151%, 7.008362%)" offset="0.359375"/><stop stop-opacity="1" stop-color="rgb(100%, 40.888977%, 7.301331%)" offset="0.375"/><stop stop-opacity="1" stop-color="rgb(100%, 40.760803%, 7.595825%)" offset="0.390625"/><stop stop-opacity="1" stop-color="rgb(100%, 40.632629%, 7.888794%)" offset="0.40625"/><stop stop-opacity="1" stop-color="rgb(100%, 40.504456%, 8.183289%)" offset="0.421875"/><stop stop-opacity="1" stop-color="rgb(100%, 40.376282%, 8.476257%)" offset="0.4375"/><stop stop-opacity="1" stop-color="rgb(100%, 40.248108%, 8.770752%)" offset="0.453125"/><stop stop-opacity="1" stop-color="rgb(100%, 40.119934%, 9.063721%)" offset="0.46875"/><stop stop-opacity="1" stop-color="rgb(100%, 39.99176%, 9.358215%)" offset="0.484375"/><stop stop-opacity="1" stop-color="rgb(100%, 39.863586%, 9.651184%)" offset="0.5"/><stop stop-opacity="1" stop-color="rgb(100%, 39.735413%, 9.945679%)" offset="0.515625"/><stop stop-opacity="1" stop-color="rgb(100%, 39.607239%, 10.238647%)" offset="0.53125"/><stop stop-opacity="1" stop-color="rgb(100%, 39.479065%, 10.533142%)" offset="0.546875"/><stop stop-opacity="1" stop-color="rgb(100%, 39.350891%, 10.827637%)" offset="0.5625"/><stop stop-opacity="1" stop-color="rgb(100%, 39.222717%, 11.120605%)" offset="0.578125"/><stop stop-opacity="1" stop-color="rgb(100%, 39.094543%, 11.4151%)" offset="0.59375"/><stop stop-opacity="1" stop-color="rgb(100%, 38.96637%, 11.708069%)" offset="0.609375"/><stop stop-opacity="1" stop-color="rgb(100%, 38.838196%, 12.002563%)" offset="0.625"/><stop stop-opacity="1" stop-color="rgb(100%, 38.710022%, 12.295532%)" offset="0.640625"/><stop stop-opacity="1" stop-color="rgb(100%, 38.581848%, 12.590027%)" offset="0.65625"/><stop stop-opacity="1" stop-color="rgb(100%, 38.453674%, 12.882996%)" offset="0.671875"/><stop stop-opacity="1" stop-color="rgb(100%, 38.3255%, 13.17749%)" offset="0.6875"/><stop stop-opacity="1" stop-color="rgb(100%, 38.197327%, 13.470459%)" offset="0.703125"/><stop stop-opacity="1" stop-color="rgb(100%, 38.069153%, 13.764954%)" offset="0.71875"/><stop stop-opacity="1" stop-color="rgb(100%, 37.940979%, 14.057922%)" offset="0.734375"/><stop stop-opacity="1" stop-color="rgb(100%, 37.812805%, 14.352417%)" offset="0.75"/><stop stop-opacity="1" stop-color="rgb(100%, 37.684631%, 14.645386%)" offset="0.765625"/><stop stop-opacity="1" stop-color="rgb(100%, 37.556458%, 14.93988%)" offset="0.78125"/><stop stop-opacity="1" stop-color="rgb(100%, 37.428284%, 15.232849%)" offset="0.796875"/><stop stop-opacity="1" stop-color="rgb(100%, 37.30011%, 15.527344%)" offset="0.8125"/><stop stop-opacity="1" stop-color="rgb(100%, 37.173462%, 15.820312%)" offset="0.828125"/><stop stop-opacity="1" stop-color="rgb(100%, 37.045288%, 16.114807%)" offset="0.84375"/><stop stop-opacity="1" stop-color="rgb(100%, 36.917114%, 16.407776%)" offset="0.859375"/><stop stop-opacity="1" stop-color="rgb(100%, 36.78894%, 16.702271%)" offset="0.875"/><stop stop-opacity="1" stop-color="rgb(100%, 36.660767%, 16.995239%)" offset="0.890625"/><stop stop-opacity="1" stop-color="rgb(100%, 36.532593%, 17.289734%)" offset="0.90625"/><stop stop-opacity="1" stop-color="rgb(100%, 36.404419%, 17.582703%)" offset="0.921875"/><stop stop-opacity="1" stop-color="rgb(100%, 36.276245%, 17.877197%)" offset="0.9375"/><stop stop-opacity="1" stop-color="rgb(100%, 36.148071%, 18.170166%)" offset="0.953125"/><stop stop-opacity="1" stop-color="rgb(100%, 36.019897%, 18.464661%)" offset="0.96875"/><stop stop-opacity="1" stop-color="rgb(100%, 35.891724%, 18.757629%)" offset="0.984375"/><stop stop-opacity="1" stop-color="rgb(100%, 35.76355%, 19.052124%)" offset="1"/></linearGradient></defs><g mask="url(#id2)"><g transform="matrix(1, 0, 0, 1, 12, 181)"><g clip-path="url(#id4)"><g clip-path="url(#id3)"><path fill="#4a81e5" d="M 105.675781 96.496094 C 90.972656 99.730469 76.417969 104.035156 62.085938 108.734375 C 62.984375 107.605469 63.886719 106.480469 64.800781 105.363281 C 78.078125 101.082031 91.546875 97.179688 105.167969 94.183594 C 140.117188 86.492188 166.949219 87.609375 192.164062 97.816406 C 220.050781 109.097656 244.933594 127.152344 268.996094 144.609375 C 271.09375 146.132812 273.1875 147.652344 275.28125 149.167969 C 277.367188 150.675781 279.457031 152.191406 281.550781 153.707031 C 305.507812 171.089844 330.28125 189.066406 357.902344 200.242188 C 374.617188 207.003906 397.332031 212.644531 439.050781 203.164062 C 466.378906 196.953125 493.132812 187.203125 519.003906 177.773438 C 527.710938 174.597656 536.484375 171.402344 545.339844 168.316406 C 545.667969 169.039062 545.984375 169.761719 546.308594 170.488281 C 537.398438 173.589844 528.574219 176.804688 519.8125 179.996094 C 493.871094 189.453125 467.046875 199.230469 439.574219 205.472656 C 423.503906 209.125 410.195312 210.5625 398.9375 210.5625 C 380.527344 210.5625 367.597656 206.71875 357.011719 202.4375 C 329.125 191.152344 304.230469 173.089844 280.160156 155.625 C 278.066406 154.109375 275.980469 152.59375 273.894531 151.085938 C 271.800781 149.570312 269.703125 148.050781 267.605469 146.527344 C 243.65625 129.152344 218.894531 111.1875 191.273438 100.011719 C 166.527344 89.996094 140.128906 88.914062 105.675781 96.496094 Z M 191.238281 116.949219 C 218.953125 129.246094 243.40625 148.597656 267.050781 167.308594 C 269.324219 169.105469 271.589844 170.898438 273.855469 172.683594 C 276.113281 174.460938 278.375 176.25 280.640625 178.042969 C 304.414062 196.855469 328.992188 216.304688 356.976562 228.722656 C 370.457031 234.703125 383.921875 237.671875 398.746094 237.671875 C 411.152344 237.671875 424.511719 235.589844 439.625 231.460938 C 467.226562 223.917969 493.8125 212.238281 519.519531 200.941406 C 530.507812 196.113281 541.605469 191.238281 552.863281 186.65625 C 552.589844 185.914062 552.316406 185.171875 552.035156 184.433594 C 540.730469 189.035156 529.597656 193.925781 518.566406 198.773438 C 492.9375 210.035156 466.433594 221.679688 439 229.175781 C 406.402344 238.085938 382.15625 237.300781 357.9375 226.558594 C 330.226562 214.261719 305.765625 194.90625 282.113281 176.1875 C 279.84375 174.394531 277.582031 172.601562 275.320312 170.824219 C 273.058594 169.039062 270.792969 167.246094 268.523438 165.449219 C 244.761719 146.648438 220.1875 127.203125 192.199219 114.785156 C 175.589844 107.414062 150.691406 100.207031 105.171875 109.976562 C 86.308594 114.027344 67.710938 119.78125 49.511719 125.871094 C 48.785156 126.941406 48.066406 128.015625 47.355469 129.09375 C 66.417969 122.667969 85.917969 116.53125 105.671875 112.292969 C 129.230469 107.234375 160.246094 103.195312 191.238281 116.949219 Z M 105.660156 158.355469 C 131.832031 152.988281 162.460938 149.460938 191.183594 164 C 219.171875 178.171875 242.875 200.320312 265.796875 221.734375 C 268.46875 224.230469 271.128906 226.714844 273.78125 229.175781 C 276.425781 231.628906 279.074219 234.101562 281.730469 236.585938 C 304.792969 258.128906 328.636719 280.410156 356.921875 294.730469 C 370.207031 301.457031 383.875 304.8125 398.515625 304.808594 C 411.367188 304.808594 424.96875 302.226562 439.707031 297.066406 C 467.566406 287.3125 493.496094 271.589844 518.570312 256.382812 C 533.730469 247.183594 549.101562 237.863281 565.039062 229.800781 C 564.878906 228.996094 564.71875 228.191406 564.550781 227.386719 C 548.34375 235.554688 532.734375 245.019531 517.339844 254.355469 C 492.371094 269.5 466.550781 285.160156 438.921875 294.832031 C 407.617188 305.789062 382.65625 305.105469 357.992188 292.617188 C 330.007812 278.449219 306.289062 256.289062 283.351562 234.855469 C 280.691406 232.371094 278.039062 229.894531 275.394531 227.441406 C 272.742188 224.980469 270.082031 222.496094 267.414062 220.007812 C 244.371094 198.476562 220.542969 176.210938 192.253906 161.890625 C 179.210938 155.285156 165.167969 151.839844 149.324219 151.351562 C 136.6875 150.960938 122.664062 152.449219 105.183594 156.035156 C 79.546875 161.292969 54.328125 169.53125 29.9375 177.496094 C 26.824219 178.511719 23.699219 179.53125 20.570312 180.546875 C 20.195312 181.496094 19.824219 182.445312 19.460938 183.398438 C 23.210938 182.183594 26.945312 180.964844 30.671875 179.75 C 55 171.804688 80.15625 163.589844 105.660156 158.355469 Z M 440.515625 419.328125 C 438.851562 419.398438 437.1875 419.46875 435.527344 419.539062 C 408.78125 420.679688 383.515625 421.757812 359.222656 410.589844 C 331.207031 397.714844 307.0625 376.917969 283.710938 356.808594 C 281.148438 354.597656 278.59375 352.398438 276.042969 350.214844 L 272.003906 346.757812 C 247.761719 325.984375 222.699219 304.507812 195.273438 292.089844 C 164.007812 277.929688 134.445312 278.117188 104.898438 292.664062 C 79.410156 305.214844 55.867188 324.375 33.097656 342.902344 C 25.699219 348.921875 18.25 354.980469 10.6875 360.855469 C 10.910156 361.679688 11.136719 362.503906 11.371094 363.324219 C 19.214844 357.246094 26.933594 350.972656 34.59375 344.738281 C 57.261719 326.292969 80.699219 307.21875 105.945312 294.789062 C 134.816406 280.578125 163.714844 280.398438 194.296875 294.246094 C 221.414062 306.523438 246.347656 327.890625 270.460938 348.554688 L 274.5 352.015625 C 277.050781 354.195312 279.605469 356.394531 282.167969 358.601562 C 305.640625 378.820312 329.914062 399.726562 358.230469 412.742188 C 375.628906 420.738281 393.964844 422.566406 412.28125 422.566406 C 420.089844 422.566406 427.902344 422.234375 435.628906 421.90625 C 437.289062 421.835938 438.949219 421.761719 440.613281 421.695312 C 467.386719 420.605469 494.53125 418.5625 520.78125 416.589844 C 526.925781 416.128906 533.105469 415.664062 539.304688 415.210938 C 539.726562 414.390625 540.136719 413.570312 540.550781 412.746094 C 533.871094 413.230469 527.214844 413.730469 520.601562 414.226562 C 494.375 416.199219 467.25 418.238281 440.515625 419.328125 Z M 105.667969 185.246094 C 130.097656 180.082031 161.898438 176.046875 191.179688 190.816406 C 219.210938 204.953125 242.828125 227.28125 265.667969 248.871094 C 268.386719 251.441406 271.09375 254 273.796875 256.535156 C 276.488281 259.058594 279.183594 261.605469 281.886719 264.164062 C 304.871094 285.886719 328.632812 308.351562 356.96875 322.640625 C 369.976562 329.203125 383.460938 332.476562 398 332.476562 C 410.945312 332.476562 424.726562 329.878906 439.742188 324.699219 C 467.589844 315.089844 493.5625 299.648438 518.679688 284.710938 C 535.082031 274.960938 551.730469 265.0625 569.050781 256.722656 C 568.964844 255.890625 568.875 255.054688 568.785156 254.222656 C 551.113281 262.675781 534.167969 272.75 517.46875 282.675781 C 492.457031 297.550781 466.589844 312.929688 438.972656 322.460938 C 407.738281 333.238281 382.019531 332.621094 358.035156 320.527344 C 330.011719 306.394531 306.375 284.050781 283.515625 262.441406 C 280.808594 259.882812 278.109375 257.332031 275.417969 254.808594 C 272.714844 252.273438 270.011719 249.71875 267.292969 247.148438 C 244.332031 225.441406 220.585938 202.996094 192.246094 188.703125 C 176.519531 180.769531 152.40625 172.945312 105.175781 182.929688 C 79.484375 188.359375 54.335938 197.132812 30.019531 205.621094 C 23.402344 207.925781 16.75 210.246094 10.050781 212.511719 C 9.808594 213.421875 9.574219 214.335938 9.339844 215.253906 C 16.5625 212.820312 23.726562 210.324219 30.800781 207.855469 C 55.046875 199.394531 80.121094 190.644531 105.667969 185.246094 Z M 440.507812 433.417969 L 436.097656 433.605469 C 409.28125 434.753906 383.953125 435.835938 359.214844 424.421875 C 331.257812 411.515625 306.964844 391.039062 283.472656 371.238281 C 280.984375 369.140625 278.503906 367.050781 276.03125 364.976562 C 273.546875 362.898438 271.0625 360.800781 268.570312 358.699219 C 244.972656 338.808594 220.570312 318.238281 192.3125 305.199219 C 164.082031 292.167969 135.488281 293.132812 104.898438 308.144531 C 79.371094 320.675781 55.765625 339.578125 32.941406 357.859375 C 26.746094 362.820312 20.511719 367.808594 14.207031 372.703125 C 14.464844 373.5 14.726562 374.296875 14.988281 375.09375 C 21.53125 370.027344 27.996094 364.851562 34.421875 359.707031 C 57.148438 341.507812 80.648438 322.6875 105.945312 310.273438 C 135.851562 295.59375 163.78125 294.636719 191.320312 307.347656 C 219.285156 320.253906 243.5625 340.71875 267.042969 360.511719 C 269.539062 362.613281 272.023438 364.710938 274.507812 366.792969 C 276.980469 368.863281 279.460938 370.953125 281.945312 373.046875 C 305.558594 392.949219 329.972656 413.53125 358.222656 426.570312 C 375.96875 434.761719 393.890625 436.65625 412.386719 436.65625 C 420.210938 436.65625 428.136719 436.316406 436.199219 435.96875 L 440.605469 435.785156 C 467.367188 434.679688 494.515625 432.8125 520.773438 431.007812 C 524.164062 430.777344 527.570312 430.542969 530.980469 430.308594 C 531.464844 429.488281 531.945312 428.664062 532.421875 427.835938 C 528.472656 428.105469 524.535156 428.375 520.609375 428.644531 C 494.371094 430.449219 467.234375 432.3125 440.507812 433.417969 Z M 440.128906 380.710938 C 413.53125 383.664062 385.351562 385.503906 358.921875 373.09375 C 330.898438 359.933594 306.902344 338.71875 283.695312 318.203125 C 281.085938 315.898438 278.484375 313.601562 275.890625 311.324219 C 273.289062 309.039062 270.683594 306.734375 268.066406 304.421875 C 244.75 283.808594 220.640625 262.496094 192.304688 249.1875 C 165.601562 236.648438 137.03125 237.183594 104.957031 250.832031 C 79.242188 261.777344 55.195312 278.1875 31.941406 294.0625 C 22.09375 300.785156 12.15625 307.5625 2.015625 313.980469 C 2.101562 314.855469 2.195312 315.730469 2.292969 316.605469 C 12.800781 309.988281 23.085938 302.972656 33.277344 296.019531 C 56.4375 280.210938 80.386719 263.863281 105.886719 253.011719 C 137.304688 239.644531 165.242188 239.09375 191.296875 251.332031 C 219.324219 264.496094 243.304688 285.695312 266.496094 306.195312 C 269.117188 308.511719 271.722656 310.816406 274.328125 313.101562 C 276.921875 315.378906 279.519531 317.675781 282.125 319.980469 C 305.457031 340.605469 329.585938 361.933594 357.914062 375.234375 C 369.945312 380.886719 383.242188 384.0625 398.5625 384.945312 C 401.679688 385.125 404.8125 385.207031 407.941406 385.207031 C 419.28125 385.207031 430.519531 384.160156 440.390625 383.066406 C 467.550781 380.050781 494.625 374.320312 520.808594 368.777344 C 533.878906 366.011719 547.097656 363.214844 560.441406 360.734375 C 560.671875 359.890625 560.898438 359.042969 561.121094 358.199219 C 547.375 360.734375 533.765625 363.617188 520.316406 366.460938 C 494.191406 371.992188 467.175781 377.710938 440.128906 380.710938 Z M 191.210938 133.367188 C 219.023438 146.585938 243.195312 167.121094 266.570312 186.984375 C 268.992188 189.042969 271.410156 191.09375 273.824219 193.136719 C 276.234375 195.171875 278.644531 197.21875 281.066406 199.277344 C 304.566406 219.238281 328.867188 239.882812 356.949219 253.230469 C 370.457031 259.652344 383.84375 262.84375 398.421875 262.84375 C 411 262.84375 424.464844 260.464844 439.664062 255.742188 C 467.375 247.125 493.71875 233.78125 519.191406 220.875 C 531.945312 214.414062 544.84375 207.882812 558.015625 201.898438 C 557.78125 201.136719 557.546875 200.378906 557.304688 199.617188 C 544.003906 205.65625 530.988281 212.246094 518.121094 218.761719 C 492.734375 231.625 466.480469 244.925781 438.960938 253.480469 C 406.769531 263.488281 382.546875 262.773438 357.964844 251.09375 C 330.164062 237.878906 305.984375 217.335938 282.597656 197.472656 C 280.179688 195.414062 277.761719 193.363281 275.351562 191.328125 C 272.941406 189.289062 270.523438 187.234375 268.101562 185.175781 C 244.613281 165.21875 220.320312 144.582031 192.226562 131.230469 C 161.460938 116.605469 130.960938 120.171875 105.179688 125.589844 C 82.175781 130.421875 59.546875 137.746094 37.550781 145.125 C 36.972656 146.148438 36.398438 147.171875 35.832031 148.203125 C 58.535156 140.566406 81.929688 132.894531 105.664062 127.90625 C 131.058594 122.570312 161.082031 119.046875 191.210938 133.367188 Z M 440.472656 407.222656 L 438.476562 407.3125 C 411.816406 408.5625 384.242188 409.84375 359.183594 398.3125 C 331.164062 385.417969 307.046875 364.554688 283.722656 344.382812 C 281.148438 342.15625 278.585938 339.9375 276.027344 337.738281 L 272.253906 334.496094 C 247.972656 313.605469 222.863281 292.003906 195.484375 279.601562 C 164.34375 265.492188 134.714844 265.679688 104.902344 280.171875 C 79.355469 292.589844 55.71875 311.304688 32.859375 329.402344 C 24.566406 335.964844 16.210938 342.578125 7.703125 348.945312 C 7.894531 349.785156 8.089844 350.625 8.289062 351.460938 C 17.105469 344.890625 25.75 338.050781 34.328125 331.257812 C 57.089844 313.238281 80.621094 294.605469 105.941406 282.300781 C 135.078125 268.136719 164.046875 267.960938 194.503906 281.757812 C 221.574219 294.019531 246.554688 315.507812 270.707031 336.289062 L 274.484375 339.535156 C 277.039062 341.734375 279.601562 343.949219 282.171875 346.171875 C 305.621094 366.453125 329.871094 387.429688 358.191406 400.464844 C 375.773438 408.554688 394.425781 410.472656 413.117188 410.472656 C 421.632812 410.472656 430.15625 410.074219 438.585938 409.679688 L 440.582031 409.585938 C 467.402344 408.34375 494.527344 405.71875 520.765625 403.183594 C 529.183594 402.367188 537.667969 401.550781 546.191406 400.769531 C 546.558594 399.945312 546.917969 399.121094 547.277344 398.292969 C 538.308594 399.109375 529.386719 399.96875 520.535156 400.824219 C 494.328125 403.359375 467.230469 405.980469 440.472656 407.222656 Z M 191.367188 65.214844 C 218.59375 73.65625 243.859375 88.351562 268.292969 102.5625 C 270.195312 103.671875 272.09375 104.777344 273.992188 105.875 C 275.882812 106.972656 277.773438 108.070312 279.667969 109.171875 C 304.226562 123.457031 329.621094 138.226562 357.105469 146.75 C 372.257812 151.445312 387.507812 153.074219 402.507812 153.074219 C 415.070312 153.074219 427.460938 151.933594 439.457031 150.492188 C 466.664062 147.226562 493.890625 141.707031 520.222656 136.367188 C 522.628906 135.878906 525.042969 135.390625 527.460938 134.902344 C 527.015625 134.183594 526.558594 133.472656 526.105469 132.757812 C 523.984375 133.1875 521.867188 133.617188 519.75 134.046875 C 493.464844 139.375 466.285156 144.886719 439.171875 148.140625 C 413.117188 151.265625 385.226562 152.988281 357.808594 144.488281 C 330.578125 136.046875 305.300781 121.34375 280.859375 107.125 C 278.964844 106.023438 277.070312 104.921875 275.183594 103.828125 C 273.285156 102.726562 271.386719 101.621094 269.484375 100.515625 C 244.9375 86.238281 219.554688 71.472656 192.070312 62.953125 C 167.394531 55.304688 140.445312 54.742188 109.820312 61.238281 C 108.410156 62.34375 107.015625 63.460938 105.628906 64.59375 C 105.652344 64.585938 105.671875 64.582031 105.691406 64.578125 C 137.835938 57.105469 165.863281 57.3125 191.367188 65.214844 Z M 278.65625 39.992188 C 304 49.292969 330.207031 58.910156 357.25 63.667969 C 377.011719 67.144531 397.636719 67.527344 417.585938 67.894531 C 424.71875 68.027344 432.09375 68.164062 439.269531 68.445312 C 449.957031 68.859375 460.71875 69.246094 471.464844 69.617188 C 470.5 68.789062 469.53125 67.964844 468.558594 67.148438 C 458.808594 66.808594 449.054688 66.453125 439.359375 66.078125 C 432.160156 65.796875 424.773438 65.660156 417.628906 65.527344 C 397.773438 65.160156 377.238281 64.78125 357.664062 61.335938 C 330.828125 56.613281 304.71875 47.035156 279.472656 37.769531 L 274.996094 36.128906 C 250.214844 27.054688 225.558594 18.65625 200.382812 13.570312 C 198.816406 14.058594 197.257812 14.566406 195.703125 15.082031 C 222.207031 20.019531 248.125 28.808594 274.179688 38.351562 Z M 105.660156 172.753906 C 131.988281 167.355469 162.742188 163.773438 191.183594 178.136719 C 219.21875 192.292969 242.808594 214.679688 265.621094 236.332031 C 268.347656 238.921875 271.066406 241.5 273.777344 244.054688 C 276.476562 246.597656 279.183594 249.164062 281.902344 251.742188 C 304.855469 273.527344 328.589844 296.054688 356.929688 310.363281 C 370.15625 317.042969 383.777344 320.375 398.371094 320.375 C 411.257812 320.375 424.90625 317.777344 439.710938 312.589844 C 467.597656 302.820312 493.460938 286.800781 518.472656 271.308594 C 534.386719 261.457031 550.527344 251.464844 567.335938 243.011719 C 567.210938 242.1875 567.085938 241.367188 566.953125 240.546875 C 549.824219 249.113281 533.40625 259.277344 517.226562 269.296875 C 492.320312 284.722656 466.566406 300.671875 438.925781 310.355469 C 408.007812 321.1875 382.292969 320.515625 357.996094 308.25 C 329.96875 294.097656 306.363281 271.691406 283.53125 250.027344 C 280.8125 247.445312 278.105469 244.875 275.402344 242.332031 C 272.691406 239.78125 269.976562 237.203125 267.25 234.617188 C 244.3125 212.847656 220.597656 190.335938 192.25 176.023438 C 179.328125 169.496094 165.277344 166.117188 149.300781 165.6875 C 136.65625 165.34375 122.636719 166.855469 105.183594 170.433594 C 79.535156 175.691406 54.328125 183.996094 29.945312 192.027344 C 24.859375 193.703125 19.746094 195.386719 14.609375 197.050781 C 14.308594 197.972656 14.015625 198.898438 13.722656 199.824219 C 19.40625 197.992188 25.0625 196.132812 30.6875 194.277344 C 55.003906 186.265625 80.148438 177.984375 105.660156 172.753906 Z M 192.488281 49.679688 C 218.84375 56.375 244.15625 67.832031 274.054688 82.972656 L 278.980469 85.472656 C 303.921875 98.132812 329.710938 111.222656 357.15625 118.445312 C 372.910156 122.589844 389.027344 123.898438 405.441406 123.898438 C 416.628906 123.898438 427.953125 123.289062 439.390625 122.554688 C 464.308594 120.957031 489.441406 118.027344 513.898438 115.078125 C 513.351562 114.347656 512.796875 113.621094 512.242188 112.894531 C 488.25 115.785156 463.628906 118.628906 439.238281 120.191406 C 411.21875 121.988281 383.90625 123.03125 357.757812 116.15625 C 330.558594 109 304.882812 95.964844 280.050781 83.359375 L 275.125 80.859375 C 245.085938 65.648438 219.636719 54.132812 193.074219 47.382812 C 174.414062 42.640625 156.304688 40.699219 138.355469 41.53125 C 136.921875 42.398438 135.496094 43.277344 134.078125 44.167969 C 153.234375 42.785156 172.542969 44.609375 192.488281 49.679688 Z M 380.597656 16.863281 C 377.730469 15.847656 374.839844 14.882812 371.929688 13.957031 C 367.136719 13.617188 362.34375 13.203125 357.59375 12.65625 C 337.035156 10.300781 316.574219 5.769531 296.53125 0.832031 C 293.011719 0.699219 289.480469 0.632812 285.929688 0.628906 C 309.230469 6.507812 333.179688 12.242188 357.320312 15.011719 C 365.039062 15.894531 372.839844 16.449219 380.597656 16.863281 Z M 278.375 62.203125 C 303.667969 73.21875 329.824219 84.613281 357.207031 90.566406 C 375.394531 94.523438 394.269531 95.292969 412.953125 95.292969 C 418.964844 95.292969 424.964844 95.214844 430.910156 95.132812 C 433.722656 95.097656 436.527344 95.058594 439.328125 95.03125 C 458.179688 94.835938 477.222656 94.214844 496.027344 93.480469 C 495.328125 92.714844 494.625 91.949219 493.917969 91.191406 C 475.785156 91.890625 457.449219 92.472656 439.300781 92.664062 C 436.503906 92.691406 433.691406 92.726562 430.875 92.765625 C 406.59375 93.085938 381.488281 93.421875 357.707031 88.253906 C 330.554688 82.347656 304.507812 71.003906 279.320312 60.03125 L 275.058594 58.175781 C 240.15625 42.996094 205.398438 29.363281 168.253906 25.804688 C 166.800781 26.460938 165.355469 27.136719 163.914062 27.816406 C 202.3125 30.695312 238.132812 44.699219 274.117188 60.347656 Z M 191.316406 82.710938 C 218.851562 92.632812 243.953125 109.066406 268.230469 124.960938 C 270.136719 126.210938 272.039062 127.457031 273.941406 128.699219 C 275.832031 129.933594 277.726562 131.171875 279.621094 132.414062 C 304.023438 148.394531 329.257812 164.914062 357.054688 174.929688 C 367.574219 178.71875 380.621094 182.144531 399.976562 182.144531 C 410.917969 182.144531 423.871094 181.050781 439.519531 178.308594 C 466.855469 173.519531 493.902344 165.816406 520.054688 158.367188 C 526.007812 156.671875 531.992188 154.96875 538.003906 153.292969 C 537.628906 152.574219 537.25 151.863281 536.867188 151.152344 C 531.019531 152.785156 525.199219 154.441406 519.40625 156.089844 C 493.3125 163.523438 466.328125 171.207031 439.109375 175.976562 C 396.328125 183.472656 374.027344 178.527344 357.859375 172.703125 C 330.320312 162.78125 305.207031 146.335938 280.917969 130.433594 C 279.023438 129.191406 277.128906 127.949219 275.234375 126.714844 C 273.335938 125.472656 271.433594 124.230469 269.527344 122.980469 C 245.136719 107.011719 219.917969 90.496094 192.121094 80.484375 C 166.65625 71.308594 139.023438 70.601562 105.160156 78.261719 C 98.242188 79.824219 91.363281 81.632812 84.53125 83.601562 C 83.378906 84.75 82.234375 85.90625 81.101562 87.074219 C 89.238281 84.644531 97.433594 82.4375 105.683594 80.570312 C 139.085938 73.019531 166.296875 73.695312 191.316406 82.710938 Z M 278.179688 18.546875 C 303.800781 26.386719 330.292969 34.492188 357.292969 38.296875 C 373.582031 40.59375 390.375 41.164062 406.613281 41.71875 C 416 42.035156 425.667969 42.367188 435.183594 43.027344 C 433.730469 42.128906 432.273438 41.246094 430.808594 40.375 C 422.738281 39.898438 414.617188 39.621094 406.695312 39.351562 C 390.515625 38.800781 373.789062 38.230469 357.621094 35.953125 C 330.808594 32.171875 304.40625 24.09375 278.871094 16.285156 L 274.933594 15.078125 C 262.667969 11.332031 250.445312 7.726562 238.222656 4.539062 C 236.335938 4.855469 234.460938 5.191406 232.585938 5.542969 C 246.457031 9.023438 260.320312 13.089844 274.242188 17.34375 Z M 440.269531 388.25 C 411.9375 390.625 384.40625 391.777344 359.027344 379.964844 C 331.003906 366.921875 306.964844 345.84375 283.710938 325.460938 C 281.117188 323.1875 278.527344 320.917969 275.949219 318.671875 C 273.359375 316.417969 270.765625 314.144531 268.164062 311.863281 C 244.804688 291.386719 220.648438 270.210938 192.3125 257.019531 C 165.21875 244.410156 136.640625 245.230469 104.933594 259.535156 C 79.269531 271.113281 55.375 288.425781 32.265625 305.167969 C 22.769531 312.050781 13.1875 318.992188 3.40625 325.589844 C 3.53125 326.457031 3.65625 327.320312 3.789062 328.1875 C 13.917969 321.382812 23.832031 314.207031 33.65625 307.085938 C 56.667969 290.414062 80.460938 273.171875 105.910156 261.691406 C 136.949219 247.691406 164.882812 246.863281 191.3125 259.164062 C 219.339844 272.210938 243.367188 293.277344 266.601562 313.644531 C 269.207031 315.929688 271.800781 318.203125 274.390625 320.457031 C 276.972656 322.703125 279.554688 324.96875 282.148438 327.242188 C 305.527344 347.734375 329.699219 368.925781 358.027344 382.109375 C 374.714844 389.878906 392.214844 392.164062 410.21875 392.164062 C 420.167969 392.160156 430.269531 391.464844 440.46875 390.609375 C 467.425781 388.351562 494.472656 383.847656 520.628906 379.492188 C 532.492188 377.515625 544.480469 375.523438 556.5625 373.722656 C 556.832031 372.886719 557.097656 372.046875 557.363281 371.207031 C 544.875 373.054688 532.492188 375.117188 520.238281 377.15625 C 494.128906 381.503906 467.132812 386 440.269531 388.25 Z M 439.96875 374.019531 C 413.304688 377.84375 385.019531 379.664062 358.800781 367.222656 C 330.777344 353.929688 306.824219 332.558594 283.664062 311.898438 C 281.042969 309.558594 278.433594 307.230469 275.828125 304.921875 C 273.210938 302.605469 270.589844 300.269531 267.960938 297.921875 C 244.691406 277.164062 220.632812 255.699219 192.296875 242.253906 C 166.007812 229.785156 137.445312 229.976562 104.984375 242.835938 C 79.230469 253.042969 55.023438 268.464844 31.613281 283.382812 C 21.570312 289.78125 11.433594 296.230469 1.101562 302.320312 C 1.152344 303.207031 1.207031 304.09375 1.265625 304.976562 C 11.988281 298.691406 22.484375 292.003906 32.886719 285.378906 C 56.203125 270.523438 80.3125 255.160156 105.859375 245.039062 C 137.675781 232.429688 165.617188 232.21875 191.28125 244.394531 C 219.308594 257.691406 243.238281 279.042969 266.382812 299.691406 C 269.015625 302.039062 271.636719 304.378906 274.257812 306.695312 C 276.859375 309 279.46875 311.328125 282.085938 313.664062 C 305.375 334.4375 329.453125 355.921875 357.785156 369.363281 C 369.988281 375.152344 383.296875 378.328125 398.472656 379.078125 C 400.882812 379.195312 403.289062 379.25 405.6875 379.25 C 418.320312 379.25 430.601562 377.753906 440.304688 376.363281 C 467.570312 372.457031 494.542969 365.410156 520.628906 358.597656 C 534.785156 354.898438 549.121094 351.152344 563.628906 347.882812 C 563.820312 347.03125 564.007812 346.179688 564.191406 345.324219 C 549.28125 348.660156 534.5625 352.507812 520.027344 356.304688 C 494.007812 363.101562 467.101562 370.132812 439.96875 374.019531 Z M 439.800781 367.835938 C 413.71875 372.480469 385.839844 374.984375 358.675781 361.953125 C 330.65625 348.515625 306.753906 326.992188 283.640625 306.175781 C 281.003906 303.804688 278.378906 301.4375 275.757812 299.09375 C 273.128906 296.742188 270.492188 294.371094 267.851562 291.988281 C 244.628906 271.074219 220.617188 249.449219 192.285156 235.863281 C 166.433594 223.464844 137.886719 223.265625 105.015625 235.257812 C 79.230469 244.667969 54.859375 259.042969 31.289062 272.941406 C 21.203125 278.890625 11.023438 284.890625 0.65625 290.546875 C 0.671875 291.4375 0.6875 292.328125 0.710938 293.214844 C 11.476562 287.375 22.035156 281.152344 32.492188 274.980469 C 55.96875 261.136719 80.246094 246.816406 105.828125 237.484375 C 138.070312 225.722656 166.015625 225.890625 191.261719 237.996094 C 219.285156 251.4375 243.167969 272.949219 266.265625 293.75 C 268.910156 296.132812 271.546875 298.503906 274.179688 300.859375 C 276.796875 303.199219 279.421875 305.5625 282.058594 307.9375 C 305.292969 328.863281 329.324219 350.503906 357.648438 364.089844 C 370.039062 370.03125 383.367188 373.207031 398.390625 373.804688 C 400.117188 373.871094 401.867188 373.90625 403.652344 373.90625 C 414.242188 373.90625 426.023438 372.695312 440.214844 370.167969 C 467.585938 365.292969 494.4375 356.867188 520.402344 348.722656 C 535.449219 344 550.699219 339.222656 566.179688 335.09375 C 566.332031 334.238281 566.480469 333.378906 566.625 332.523438 C 550.738281 336.726562 535.109375 341.625 519.695312 346.460938 C 493.796875 354.585938 467.019531 362.988281 439.800781 367.835938 Z M 438.148438 461.605469 C 410.738281 462.65625 384.855469 463.644531 359.0625 452.644531 C 331.289062 440.800781 306.457031 422.210938 282.441406 404.238281 C 280.261719 402.605469 278.085938 400.976562 275.914062 399.359375 C 273.738281 397.734375 271.558594 396.105469 269.378906 394.472656 C 245.257812 376.417969 220.320312 357.75 192.28125 345.789062 C 163.417969 333.480469 136.480469 334.296875 104.9375 348.4375 C 79.238281 359.957031 55.25 376.851562 32.050781 393.191406 C 29.390625 395.066406 26.722656 396.941406 24.042969 398.816406 C 24.367188 399.558594 24.691406 400.292969 25.015625 401.027344 C 27.824219 399.0625 30.625 397.09375 33.414062 395.128906 C 56.523438 378.855469 80.417969 362.027344 105.90625 350.597656 C 136.792969 336.75 163.144531 335.9375 191.351562 347.96875 C 219.128906 359.816406 243.953125 378.398438 267.957031 396.367188 C 270.140625 398 272.320312 399.632812 274.5 401.257812 C 276.667969 402.875 278.84375 404.503906 281.019531 406.132812 C 305.148438 424.191406 330.097656 442.867188 358.132812 454.824219 C 376.78125 462.777344 395.363281 464.582031 414.472656 464.582031 C 422.289062 464.582031 430.199219 464.28125 438.238281 463.972656 L 440.480469 463.886719 C 463.839844 463 487.503906 461.625 510.613281 460.222656 C 511.257812 459.394531 511.894531 458.566406 512.527344 457.730469 C 488.777344 459.175781 464.417969 460.609375 440.390625 461.519531 Z M 439.628906 361.824219 C 415.296875 367.023438 386.628906 370.503906 358.542969 356.886719 C 330.527344 343.300781 306.679688 321.617188 283.617188 300.644531 C 280.964844 298.234375 278.324219 295.832031 275.6875 293.453125 C 273.046875 291.070312 270.398438 288.664062 267.742188 286.25 C 244.570312 265.175781 220.609375 243.386719 192.277344 229.648438 C 166.890625 217.339844 138.359375 216.742188 105.046875 227.828125 C 79.246094 236.410156 54.710938 249.710938 30.988281 262.570312 C 21.003906 267.980469 10.929688 273.4375 0.691406 278.578125 C 0.671875 279.46875 0.652344 280.363281 0.640625 281.253906 C 11.289062 275.9375 21.75 270.269531 32.117188 264.652344 C 55.75 251.839844 80.191406 238.59375 105.796875 230.074219 C 138.488281 219.195312 166.441406 219.753906 191.242188 231.78125 C 219.269531 245.371094 243.101562 267.042969 266.148438 288 C 268.808594 290.417969 271.457031 292.824219 274.101562 295.210938 C 276.734375 297.589844 279.371094 299.988281 282.023438 302.398438 C 305.210938 323.480469 329.1875 345.28125 357.511719 359.015625 C 372.484375 366.277344 387.574219 368.796875 402.089844 368.796875 C 415.429688 368.796875 428.28125 366.667969 440.125 364.140625 C 467.597656 358.265625 494.308594 348.453125 520.140625 338.960938 C 535.886719 333.175781 551.851562 327.308594 568.128906 322.292969 C 568.242188 321.4375 568.34375 320.578125 568.449219 319.71875 C 551.765625 324.820312 535.429688 330.820312 519.324219 336.738281 C 493.570312 346.199219 466.9375 355.988281 439.628906 361.824219 Z M 438.015625 475.347656 C 410.65625 476.304688 384.816406 477.210938 358.929688 467.097656 C 331.257812 456.28125 306.101562 439.089844 281.773438 422.460938 C 279.785156 421.105469 277.804688 419.75 275.820312 418.398438 C 273.835938 417.046875 271.851562 415.6875 269.863281 414.332031 C 245.429688 397.632812 220.167969 380.367188 192.238281 369.453125 C 163.417969 358.191406 136.503906 358.933594 104.972656 371.871094 C 79.222656 382.4375 54.992188 397.925781 31.5625 412.902344 C 31.328125 413.054688 31.089844 413.203125 30.851562 413.355469 C 31.210938 414.0625 31.566406 414.773438 31.929688 415.480469 C 32.230469 415.285156 32.535156 415.089844 32.839844 414.898438 C 56.179688 399.976562 80.320312 384.546875 105.871094 374.0625 C 136.796875 361.375 163.167969 360.632812 191.378906 371.660156 C 219.054688 382.472656 244.203125 399.664062 268.523438 416.285156 C 270.515625 417.644531 272.503906 419.003906 274.488281 420.355469 C 276.46875 421.707031 278.449219 423.058594 280.4375 424.417969 C 304.875 441.117188 330.144531 458.390625 358.070312 469.304688 C 376.777344 476.613281 395.351562 478.269531 414.441406 478.269531 C 422.226562 478.269531 430.097656 477.996094 438.097656 477.714844 L 440.382812 477.636719 C 459.652344 476.964844 479.132812 475.992188 498.34375 474.953125 C 499.082031 474.125 499.8125 473.296875 500.539062 472.460938 C 480.589844 473.546875 460.328125 474.574219 440.300781 475.269531 Z M 439.460938 355.640625 C 415.5625 361.582031 387.246094 365.742188 358.417969 351.617188 C 330.398438 337.886719 306.597656 316.039062 283.582031 294.914062 C 280.917969 292.46875 278.265625 290.035156 275.617188 287.625 C 272.960938 285.203125 270.300781 282.761719 267.628906 280.308594 C 244.503906 259.085938 220.59375 237.140625 192.265625 223.253906 C 167.378906 211.058594 138.855469 210.074219 105.082031 220.25 C 79.273438 228.027344 54.585938 240.257812 30.710938 252.085938 C 20.992188 256.898438 11.191406 261.75 1.246094 266.335938 C 1.1875 267.226562 1.132812 268.121094 1.082031 269.015625 C 11.445312 264.265625 21.652344 259.214844 31.761719 254.207031 C 55.550781 242.421875 80.148438 230.238281 105.761719 222.519531 C 138.941406 212.523438 166.894531 213.457031 191.222656 225.382812 C 219.246094 239.117188 243.027344 260.945312 266.027344 282.054688 C 268.699219 284.507812 271.363281 286.953125 274.023438 289.375 C 276.667969 291.785156 279.316406 294.214844 281.976562 296.65625 C 305.121094 317.898438 329.046875 339.859375 357.375 353.742188 C 372.121094 360.96875 386.695312 363.53125 400.625 363.53125 C 414.570312 363.53125 427.867188 360.960938 440.03125 357.941406 C 467.605469 351.089844 494.167969 339.914062 519.855469 329.109375 C 536.105469 322.269531 552.597656 315.335938 569.488281 309.445312 C 569.5625 308.585938 569.632812 307.726562 569.695312 306.863281 C 552.402344 312.847656 535.542969 319.9375 518.933594 326.925781 C 493.332031 337.699219 466.855469 348.835938 439.460938 355.640625 Z M 439.304688 348.953125 C 405.96875 358.308594 381.742188 357.347656 358.296875 345.746094 C 330.28125 331.882812 306.527344 309.886719 283.558594 288.617188 C 280.882812 286.140625 278.214844 283.671875 275.554688 281.226562 C 272.882812 278.773438 270.207031 276.292969 267.523438 273.808594 C 244.449219 252.441406 220.585938 230.34375 192.257812 216.324219 C 167.550781 204.09375 139.859375 202.804688 105.109375 212.257812 C 79.316406 219.273438 54.488281 230.476562 30.472656 241.316406 C 21.195312 245.503906 11.835938 249.722656 2.363281 253.726562 C 2.265625 254.625 2.164062 255.523438 2.074219 256.421875 C 11.980469 252.257812 21.757812 247.847656 31.449219 243.472656 C 55.375 232.675781 80.121094 221.507812 105.734375 214.542969 C 139.886719 205.246094 167.046875 206.492188 191.207031 218.445312 C 219.226562 232.3125 242.960938 254.292969 265.914062 275.546875 C 268.601562 278.035156 271.277344 280.511719 273.949219 282.96875 C 276.609375 285.410156 279.273438 287.878906 281.949219 290.355469 C 305.042969 311.738281 328.921875 333.851562 357.246094 347.871094 C 370.171875 354.265625 383.570312 357.449219 398.207031 357.605469 C 398.59375 357.609375 398.980469 357.613281 399.367188 357.613281 C 411.535156 357.613281 424.46875 355.578125 439.945312 351.234375 C 467.605469 343.472656 494.011719 331.015625 519.546875 318.964844 C 536.128906 311.144531 552.957031 303.203125 570.28125 296.496094 C 570.3125 295.640625 570.335938 294.78125 570.359375 293.925781 C 552.644531 300.734375 535.460938 308.839844 518.535156 316.824219 C 493.085938 328.832031 466.773438 341.246094 439.304688 348.953125 Z M 105.683594 196.1875 C 151.996094 185.738281 176.660156 194.226562 191.183594 201.523438 C 219.207031 215.597656 242.859375 237.832031 265.734375 259.332031 C 268.441406 261.878906 271.140625 264.414062 273.835938 266.925781 C 276.515625 269.429688 279.203125 271.953125 281.898438 274.488281 C 304.914062 296.121094 328.710938 318.492188 357.035156 332.71875 C 370.097656 339.28125 383.425781 342.546875 397.957031 342.546875 C 410.757812 342.546875 424.496094 340.007812 439.796875 334.949219 C 467.59375 325.761719 493.699219 311.128906 518.941406 296.980469 C 535.605469 287.640625 552.523438 278.160156 570.078125 270.179688 C 570.035156 269.335938 569.988281 268.488281 569.933594 267.644531 C 552.003906 275.738281 534.765625 285.394531 517.785156 294.914062 C 492.636719 309.007812 466.632812 323.585938 439.050781 332.703125 C 407.03125 343.285156 382.066406 342.636719 358.101562 330.601562 C 330.082031 316.53125 306.414062 294.28125 283.523438 272.765625 C 280.824219 270.226562 278.132812 267.699219 275.449219 265.195312 C 272.757812 262.6875 270.0625 260.152344 267.355469 257.609375 C 244.359375 235.992188 220.582031 213.636719 192.246094 199.40625 C 177.398438 191.949219 152.214844 183.257812 105.160156 193.875 C 79.425781 199.683594 54.363281 209.121094 30.128906 218.25 C 22.355469 221.179688 14.527344 224.125 6.632812 226.96875 C 6.445312 227.871094 6.261719 228.777344 6.078125 229.683594 C 14.445312 226.6875 22.734375 223.566406 30.960938 220.46875 C 55.125 211.367188 80.109375 201.957031 105.683594 196.1875 Z M 105.664062 143.28125 C 131.429688 137.949219 161.742188 134.472656 191.191406 149.105469 C 219.09375 162.972656 243.015625 184.453125 266.148438 205.226562 C 268.703125 207.523438 271.253906 209.8125 273.800781 212.085938 C 276.339844 214.351562 278.878906 216.632812 281.429688 218.921875 C 304.691406 239.8125 328.746094 261.414062 356.929688 275.417969 C 370.484375 282.152344 383.835938 285.503906 398.28125 285.5 C 410.957031 285.5 424.472656 282.921875 439.691406 277.785156 C 467.488281 268.410156 493.605469 253.695312 518.863281 239.46875 C 532.988281 231.511719 547.292969 223.457031 562.011719 216.277344 C 561.816406 215.492188 561.621094 214.710938 561.417969 213.929688 C 546.492188 221.1875 532.003906 229.347656 517.703125 237.40625 C 492.539062 251.578125 466.519531 266.238281 438.933594 275.542969 C 407.023438 286.308594 382.8125 285.636719 357.984375 273.296875 C 330.089844 259.4375 306.15625 237.945312 283.011719 217.160156 C 280.460938 214.867188 277.917969 212.585938 275.375 210.316406 C 272.832031 208.046875 270.285156 205.761719 267.730469 203.464844 C 244.480469 182.585938 220.4375 160.996094 192.246094 146.988281 C 162.152344 132.027344 131.347656 135.546875 105.183594 140.960938 C 79.535156 146.265625 54.328125 154.609375 29.953125 162.675781 C 29.332031 162.882812 28.710938 163.089844 28.089844 163.292969 C 27.621094 164.277344 27.160156 165.257812 26.703125 166.246094 C 28.035156 165.804688 29.367188 165.367188 30.695312 164.925781 C 55.011719 156.878906 80.152344 148.558594 105.664062 143.28125 Z M 105.707031 205.855469 C 140.402344 197.3125 167.566406 198.820312 191.191406 210.613281 C 219.214844 224.597656 242.90625 246.714844 265.820312 268.101562 C 268.515625 270.621094 271.203125 273.128906 273.886719 275.613281 C 276.558594 278.085938 279.234375 280.585938 281.921875 283.09375 C 304.972656 304.609375 328.808594 326.859375 357.132812 340.996094 C 370.167969 347.5 383.597656 350.738281 398.394531 350.738281 C 411.023438 350.738281 424.644531 348.378906 439.863281 343.683594 C 467.601562 335.125 493.851562 321.503906 519.238281 308.328125 C 535.957031 299.648438 552.925781 290.84375 570.476562 283.425781 C 570.46875 282.570312 570.460938 281.71875 570.445312 280.867188 C 552.511719 288.394531 535.199219 297.375 518.144531 306.222656 C 492.851562 319.351562 466.699219 332.925781 439.164062 341.421875 C 406.738281 351.425781 381.765625 350.640625 358.191406 338.875 C 330.171875 324.894531 306.464844 302.761719 283.539062 281.363281 C 280.847656 278.851562 278.167969 276.351562 275.496094 273.875 C 272.816406 271.394531 270.128906 268.886719 267.433594 266.371094 C 244.402344 244.867188 220.582031 222.632812 192.25 208.492188 C 168.09375 196.4375 140.414062 194.867188 105.140625 203.558594 C 79.367188 209.90625 54.414062 220.167969 30.277344 230.09375 C 21.636719 233.648438 12.925781 237.226562 4.125 240.648438 C 3.980469 241.546875 3.84375 242.449219 3.710938 243.347656 C 12.960938 239.773438 22.105469 236.015625 31.179688 232.285156 C 55.234375 222.390625 80.105469 212.164062 105.707031 205.855469 Z M 437.148438 488.96875 C 410.0625 489.816406 384.480469 490.613281 358.773438 481.707031 C 331.195312 472.148438 305.683594 456.589844 281.007812 441.542969 L 270.398438 435.074219 C 245.625 419.964844 220.007812 404.339844 192.1875 394.699219 C 163.769531 384.851562 136.070312 385.535156 105.015625 396.851562 C 82.207031 405.164062 60.414062 416.988281 39.292969 428.898438 C 39.691406 429.582031 40.089844 430.261719 40.492188 430.941406 C 61.519531 419.085938 83.207031 407.320312 105.828125 399.078125 C 136.34375 387.957031 163.539062 387.28125 191.410156 396.9375 C 218.988281 406.496094 244.496094 422.050781 269.164062 437.097656 L 279.777344 443.5625 C 304.554688 458.675781 330.179688 474.304688 357.996094 483.945312 C 376.535156 490.367188 394.902344 491.828125 413.769531 491.828125 C 421.488281 491.828125 429.292969 491.582031 437.222656 491.335938 L 440.265625 491.238281 C 454.933594 490.789062 469.726562 490.175781 484.433594 489.5 C 485.277344 488.675781 486.121094 487.847656 486.953125 487.015625 C 471.394531 487.734375 455.722656 488.394531 440.191406 488.871094 Z M 278.1875 542.167969 L 274.972656 541.507812 C 233.355469 532.914062 184.9375 524.78125 133.335938 526.363281 C 134.550781 527.132812 135.769531 527.890625 136.996094 528.644531 C 187.015625 527.542969 233.988281 535.464844 274.496094 543.824219 L 277.707031 544.488281 C 303.746094 549.871094 330.671875 555.433594 357.636719 557.808594 C 360.816406 558.085938 364.011719 558.316406 367.214844 558.503906 C 369.410156 557.84375 371.601562 557.164062 373.777344 556.457031 C 368.441406 556.238281 363.125 555.914062 357.84375 555.449219 C 331.019531 553.085938 304.160156 547.535156 278.1875 542.167969 Z M 358.019531 540.773438 C 331.171875 537.140625 304.605469 529.625 278.910156 522.355469 L 275.121094 521.28125 C 213.886719 503.976562 161.5625 494.1875 105.246094 502.679688 C 104.089844 502.851562 102.9375 503.039062 101.78125 503.222656 C 102.582031 503.898438 103.386719 504.570312 104.199219 505.242188 C 104.664062 505.167969 105.132812 505.089844 105.597656 505.019531 C 161.496094 496.59375 213.535156 506.339844 274.476562 523.5625 L 278.265625 524.632812 C 304.039062 531.925781 330.6875 539.464844 357.699219 543.121094 C 372.285156 545.09375 387.136719 545.613281 401.882812 545.625 C 403.621094 544.847656 405.347656 544.050781 407.070312 543.238281 C 390.710938 543.34375 374.171875 542.957031 358.019531 540.773438 Z M 185.242188 552.21875 C 187.832031 553.195312 190.441406 554.132812 193.066406 555.03125 C 218.476562 556.570312 245.378906 559.320312 274.515625 563.328125 C 289.472656 565.386719 304.5 567.035156 319.570312 568.363281 C 323.171875 567.933594 326.75 567.4375 330.308594 566.875 C 311.742188 565.429688 293.234375 563.511719 274.839844 560.984375 C 242.582031 556.546875 213.042969 553.640625 185.242188 552.21875 Z M 440.464844 447.585938 L 437.535156 447.703125 C 410.300781 448.8125 384.578125 449.863281 359.160156 438.40625 C 331.289062 425.835938 306.746094 406.140625 283.011719 387.089844 C 280.664062 385.207031 278.324219 383.328125 275.984375 381.460938 C 273.644531 379.589844 271.296875 377.710938 268.949219 375.824219 C 245.109375 356.6875 220.457031 336.902344 192.308594 324.210938 C 163.769531 311.34375 136 312.242188 104.914062 327.035156 C 79.289062 339.230469 55.511719 357.28125 32.519531 374.738281 C 27.894531 378.246094 23.25 381.769531 18.574219 385.261719 C 18.859375 386.03125 19.152344 386.800781 19.445312 387.566406 C 24.3125 383.9375 29.144531 380.273438 33.953125 376.621094 C 56.851562 359.238281 80.527344 341.265625 105.929688 329.175781 C 136.34375 314.699219 163.480469 313.808594 191.332031 326.367188 C 219.207031 338.9375 243.742188 358.628906 267.464844 377.667969 C 269.816406 379.558594 272.164062 381.441406 274.507812 383.3125 C 276.84375 385.179688 279.183594 387.054688 281.527344 388.9375 C 305.378906 408.078125 330.042969 427.871094 358.183594 440.5625 C 376.527344 448.832031 394.902344 450.722656 413.828125 450.722656 C 421.65625 450.722656 429.578125 450.398438 437.628906 450.070312 L 440.558594 449.953125 C 467.320312 448.875 494.476562 447.097656 520.742188 445.378906 C 520.976562 445.363281 521.210938 445.347656 521.445312 445.332031 C 522.003906 444.507812 522.558594 443.679688 523.109375 442.847656 C 522.269531 442.902344 521.425781 442.960938 520.585938 443.015625 C 494.335938 444.734375 467.195312 446.511719 440.464844 447.585938 Z M 358.207031 526.011719 C 331.320312 520.976562 305.097656 511.433594 279.734375 502.199219 L 275.277344 500.578125 C 220.511719 480.679688 166.296875 463.847656 105.1875 476.300781 C 96.628906 478.042969 88.121094 480.140625 79.679688 482.453125 C 80.300781 483.105469 80.925781 483.75 81.554688 484.394531 C 89.539062 482.226562 97.578125 480.265625 105.660156 478.621094 C 166.164062 466.292969 220.035156 483.023438 274.46875 502.804688 L 278.925781 504.425781 C 304.375 513.691406 330.691406 523.269531 357.773438 528.339844 C 374.140625 531.402344 390.847656 532.136719 407.40625 532.136719 C 414.550781 532.136719 421.667969 531.996094 428.71875 531.851562 C 430.101562 531.046875 431.480469 530.230469 432.851562 529.402344 C 431.964844 529.421875 431.085938 529.4375 430.199219 529.457031 C 406.460938 529.941406 381.910156 530.449219 358.207031 526.011719 Z M 435.882812 502.488281 C 409.203125 503.21875 384.003906 503.902344 358.59375 496.425781 C 331.296875 488.398438 305.574219 474.746094 280.699219 461.542969 L 275.574219 458.824219 C 246.648438 443.503906 220.507812 430.207031 193.480469 422.625 C 162.421875 413.914062 133.5 414.007812 105.066406 422.90625 C 86.109375 428.839844 67.707031 436.96875 49.777344 445.519531 C 50.226562 446.179688 50.675781 446.839844 51.132812 447.496094 C 68.878906 439.046875 87.074219 431.019531 105.777344 425.167969 C 133.757812 416.40625 162.234375 416.324219 192.84375 424.90625 C 219.640625 432.421875 245.664062 445.664062 274.464844 460.917969 L 279.585938 463.632812 C 304.566406 476.890625 330.398438 490.605469 357.921875 498.699219 C 376.136719 504.058594 394.152344 505.28125 412.644531 505.28125 C 420.3125 505.28125 428.070312 505.070312 435.949219 504.859375 L 440.132812 504.746094 C 449.578125 504.496094 459.078125 504.1875 468.570312 503.84375 C 469.546875 503.023438 470.519531 502.199219 471.484375 501.367188 C 461 501.753906 450.503906 502.101562 440.070312 502.378906 Z M 433.46875 515.976562 C 408.703125 516.558594 383.09375 517.164062 358.402344 511.214844 C 331.175781 504.652344 305.0625 492.949219 279.804688 481.628906 L 275.429688 479.671875 C 217.957031 453.953125 165.472656 433.9375 105.125 449.546875 C 90.820312 453.246094 76.75 458.0625 62.917969 463.3125 C 63.4375 463.960938 63.960938 464.609375 64.488281 465.253906 C 78.015625 460.136719 91.769531 455.449219 105.71875 451.839844 C 165.324219 436.421875 217.402344 456.300781 274.464844 481.832031 L 278.835938 483.792969 C 304.191406 495.152344 330.410156 506.902344 357.847656 513.515625 C 375.335938 517.730469 393.203125 518.699219 410.894531 518.699219 C 418.484375 518.699219 426.042969 518.519531 433.523438 518.34375 C 435.679688 518.292969 437.839844 518.242188 439.996094 518.195312 C 443.425781 518.121094 446.863281 518.039062 450.304688 517.953125 C 451.449219 517.140625 452.585938 516.320312 453.714844 515.492188 C 449.117188 515.613281 444.523438 515.726562 439.945312 515.828125 C 437.785156 515.875 435.625 515.925781 433.46875 515.976562 Z M 440.386719 396.976562 C 414.578125 398.558594 385.320312 400.351562 359.117188 388.238281 C 331.097656 375.28125 307.011719 354.328125 283.722656 334.0625 C 281.140625 331.8125 278.5625 329.574219 275.992188 327.351562 C 273.421875 325.128906 270.84375 322.882812 268.253906 320.632812 C 244.851562 300.265625 220.652344 279.207031 192.316406 266.105469 C 164.851562 253.410156 136.265625 254.429688 104.917969 269.21875 C 79.304688 281.304688 55.550781 299.394531 32.574219 316.886719 C 23.589844 323.726562 14.53125 330.621094 5.296875 337.210938 C 5.453125 338.070312 5.609375 338.925781 5.777344 339.78125 C 15.347656 332.980469 24.71875 325.847656 34.011719 318.773438 C 56.886719 301.351562 80.542969 283.339844 105.925781 271.363281 C 136.601562 256.886719 164.535156 255.871094 191.320312 268.253906 C 219.351562 281.214844 243.421875 302.160156 266.699219 322.417969 C 269.289062 324.671875 271.867188 326.917969 274.445312 329.144531 C 277.011719 331.363281 279.585938 333.601562 282.167969 335.847656 C 305.582031 356.222656 329.796875 377.292969 358.125 390.386719 C 375.546875 398.441406 394.171875 400.480469 412.25 400.480469 C 421.921875 400.480469 431.441406 399.894531 440.53125 399.339844 C 467.410156 397.691406 494.507812 394.230469 520.710938 390.882812 C 531.011719 389.570312 541.40625 388.246094 551.863281 387.019531 C 552.179688 386.191406 552.488281 385.359375 552.796875 384.527344 C 541.921875 385.792969 531.117188 387.167969 520.414062 388.535156 C 494.246094 391.878906 467.1875 395.332031 440.386719 396.976562 Z M 440.386719 396.976562 " fill-opacity="1" fill-rule="nonzero"/></g></g></g></g><g clip-path="url(#id5)"><g clip-path="url(#id6)"><path fill="url(#id7)" d="M 138.957031 92.292969 L 138.957031 181.308594 L 456.183594 181.308594 L 456.183594 92.292969 Z M 138.957031 92.292969 " fill-rule="nonzero"/></g></g></svg>