<svg xmlns="http://www.w3.org/2000/svg" xmlns:xlink="http://www.w3.org/1999/xlink" width="794" zoomAndPan="magnify" viewBox="0 0 594.95996 595.499987" height="794" preserveAspectRatio="xMidYMid meet" version="1.0"><defs><filter x="0%" y="0%" width="100%" height="100%" id="id1"><feColorMatrix values="0 0 0 0 1 0 0 0 0 1 0 0 0 0 1 0 0 0 1 0" color-interpolation-filters="sRGB"/></filter><clipPath id="id2"><path d="M 0.230469 0 L 594.691406 0 L 594.691406 594.5 L 0.230469 594.5 Z M 0.230469 0 " clip-rule="nonzero"/></clipPath><mask id="id3"><g filter="url(#id1)"><rect x="-59.495996" width="713.951952" fill="#000000" y="-59.549999" height="714.599985" fill-opacity="0.6471"/></g></mask><clipPath id="id4"><path d="M 0.230469 0 L 594.691406 0 L 594.691406 594.5 L 0.230469 594.5 Z M 0.230469 0 " clip-rule="nonzero"/></clipPath><clipPath id="id5"><rect x="0" width="595" y="0" height="595"/></clipPath></defs><g clip-path="url(#id2)"><g mask="url(#id3)"><g><g clip-path="url(#id5)"><g clip-path="url(#id4)"><path fill="#4a81e5" d="M 109.175781 100.390625 C 93.78125 103.777344 78.542969 108.285156 63.539062 113.207031 C 64.476562 112.023438 65.425781 110.847656 66.378906 109.675781 C 80.28125 105.195312 94.382812 101.105469 108.644531 97.96875 C 145.234375 89.914062 173.324219 91.085938 199.726562 101.769531 C 228.925781 113.585938 254.972656 132.492188 280.164062 150.773438 C 282.363281 152.371094 284.554688 153.960938 286.746094 155.546875 C 288.933594 157.125 291.117188 158.710938 293.308594 160.300781 C 318.394531 178.503906 344.332031 197.324219 373.246094 209.03125 C 390.75 216.113281 414.53125 222.015625 458.210938 212.089844 C 486.820312 205.589844 514.828125 195.375 541.917969 185.5 C 551.03125 182.175781 560.21875 178.828125 569.492188 175.597656 C 569.832031 176.355469 570.167969 177.113281 570.503906 177.871094 C 561.175781 181.121094 551.933594 184.488281 542.765625 187.832031 C 515.605469 197.730469 487.523438 207.972656 458.757812 214.507812 C 441.929688 218.332031 427.996094 219.835938 416.210938 219.835938 C 396.9375 219.835938 383.398438 215.8125 372.316406 211.328125 C 343.121094 199.511719 317.058594 180.597656 291.855469 162.308594 C 289.664062 160.71875 287.476562 159.132812 285.292969 157.554688 C 283.101562 155.96875 280.90625 154.378906 278.707031 152.78125 C 253.636719 134.585938 227.714844 115.773438 198.792969 104.070312 C 172.886719 93.585938 145.246094 92.449219 109.175781 100.390625 Z M 198.757812 121.808594 C 227.773438 134.6875 253.375 154.949219 278.132812 174.542969 C 280.511719 176.425781 282.882812 178.304688 285.253906 180.171875 C 287.617188 182.035156 289.984375 183.90625 292.359375 185.785156 C 317.246094 205.480469 342.980469 225.847656 372.28125 238.851562 C 386.390625 245.117188 400.488281 248.222656 416.011719 248.222656 C 429 248.222656 442.988281 246.046875 458.8125 241.722656 C 487.707031 233.824219 515.542969 221.589844 542.457031 209.761719 C 553.964844 204.707031 565.582031 199.601562 577.367188 194.800781 C 577.078125 194.023438 576.792969 193.25 576.5 192.476562 C 564.667969 197.296875 553.007812 202.417969 541.460938 207.492188 C 514.625 219.285156 486.875 231.480469 458.15625 239.328125 C 424.023438 248.660156 398.640625 247.839844 373.285156 236.585938 C 344.273438 223.710938 318.664062 203.441406 293.898438 183.839844 C 291.523438 181.960938 289.15625 180.085938 286.789062 178.222656 C 284.417969 176.355469 282.046875 174.480469 279.671875 172.597656 C 254.792969 152.90625 229.066406 132.546875 199.761719 119.542969 C 182.375 111.824219 156.304688 104.277344 108.648438 114.507812 C 88.898438 118.746094 69.425781 124.773438 50.371094 131.152344 C 49.613281 132.273438 48.859375 133.394531 48.117188 134.527344 C 68.070312 127.796875 88.488281 121.371094 109.167969 116.933594 C 133.835938 111.636719 166.308594 107.40625 198.757812 121.808594 Z M 109.160156 165.167969 C 136.5625 159.546875 168.628906 155.851562 198.699219 171.078125 C 228.003906 185.917969 252.820312 209.109375 276.820312 231.539062 C 279.613281 234.148438 282.398438 236.75 285.179688 239.328125 C 287.945312 241.898438 290.71875 244.488281 293.5 247.089844 C 317.644531 269.648438 342.609375 292.980469 372.222656 307.972656 C 386.132812 315.019531 400.441406 318.53125 415.769531 318.53125 C 429.222656 318.53125 443.464844 315.824219 458.894531 310.421875 C 488.0625 300.210938 515.210938 283.742188 541.460938 267.816406 C 557.335938 258.1875 573.429688 248.425781 590.113281 239.980469 C 589.945312 239.140625 589.777344 238.296875 589.605469 237.457031 C 572.632812 246.007812 556.292969 255.921875 540.175781 265.699219 C 514.035156 281.554688 487 297.953125 458.074219 308.082031 C 425.300781 319.554688 399.167969 318.839844 373.34375 305.761719 C 344.046875 290.925781 319.210938 267.71875 295.195312 245.277344 C 292.410156 242.671875 289.632812 240.082031 286.863281 237.511719 C 284.085938 234.933594 281.304688 232.335938 278.511719 229.726562 C 254.386719 207.179688 229.4375 183.867188 199.820312 168.867188 C 186.164062 161.953125 171.464844 158.34375 154.875 157.832031 C 141.640625 157.421875 126.960938 158.984375 108.660156 162.738281 C 81.820312 168.246094 55.414062 176.871094 29.878906 185.210938 C 26.621094 186.277344 23.351562 187.34375 20.070312 188.40625 C 19.679688 189.398438 19.292969 190.394531 18.910156 191.390625 C 22.835938 190.121094 26.75 188.84375 30.648438 187.570312 C 56.117188 179.25 82.457031 170.648438 109.160156 165.167969 Z M 459.742188 438.449219 C 458 438.523438 456.257812 438.597656 454.519531 438.671875 C 426.519531 439.867188 400.0625 440.992188 374.628906 429.300781 C 345.300781 415.816406 320.023438 394.039062 295.574219 372.980469 C 292.890625 370.667969 290.214844 368.363281 287.542969 366.078125 L 283.316406 362.457031 C 257.9375 340.703125 231.691406 318.210938 202.980469 305.207031 C 170.246094 290.382812 139.296875 290.578125 108.363281 305.8125 C 81.675781 318.953125 57.027344 339.015625 33.1875 358.417969 C 25.441406 364.722656 17.644531 371.066406 9.722656 377.21875 C 9.960938 378.082031 10.195312 378.945312 10.441406 379.804688 C 18.652344 373.441406 26.730469 366.871094 34.753906 360.34375 C 58.484375 341.027344 83.023438 321.054688 109.457031 308.039062 C 139.683594 293.15625 169.941406 292.964844 201.957031 307.46875 C 230.347656 320.324219 256.453125 342.699219 281.703125 364.339844 L 285.929688 367.960938 C 288.597656 370.246094 291.273438 372.546875 293.957031 374.859375 C 318.53125 396.03125 343.949219 417.925781 373.59375 431.554688 C 391.808594 439.925781 411.003906 441.84375 430.183594 441.839844 C 438.359375 441.839844 446.535156 441.492188 454.625 441.148438 C 456.363281 441.074219 458.105469 441 459.84375 440.929688 C 487.875 439.785156 516.296875 437.648438 543.777344 435.582031 C 550.210938 435.101562 556.679688 434.613281 563.171875 434.140625 C 563.613281 433.28125 564.042969 432.417969 564.476562 431.554688 C 557.480469 432.066406 550.515625 432.589844 543.59375 433.109375 C 516.128906 435.175781 487.734375 437.308594 459.742188 438.449219 Z M 109.164062 193.324219 C 134.742188 187.917969 168.035156 183.695312 198.695312 199.160156 C 228.042969 213.964844 252.769531 237.34375 276.679688 259.953125 C 279.527344 262.644531 282.363281 265.324219 285.191406 267.980469 C 288.007812 270.621094 290.832031 273.289062 293.664062 275.96875 C 317.726562 298.714844 342.605469 322.238281 372.269531 337.203125 C 385.890625 344.074219 400.007812 347.5 415.230469 347.5 C 428.785156 347.5 443.214844 344.78125 458.933594 339.355469 C 488.089844 329.296875 515.28125 313.125 541.578125 297.484375 C 558.753906 287.273438 576.179688 276.910156 594.316406 268.175781 C 594.226562 267.300781 594.132812 266.429688 594.035156 265.558594 C 575.535156 274.410156 557.792969 284.957031 540.3125 295.355469 C 514.121094 310.929688 487.039062 327.035156 458.125 337.011719 C 425.425781 348.296875 398.496094 347.65625 373.386719 334.988281 C 344.046875 320.1875 319.300781 296.792969 295.367188 274.164062 C 292.53125 271.484375 289.707031 268.8125 286.890625 266.171875 C 284.0625 263.519531 281.230469 260.839844 278.386719 258.152344 C 254.34375 235.417969 229.480469 211.914062 199.8125 196.945312 C 183.34375 188.640625 158.101562 180.445312 108.652344 190.898438 C 81.753906 196.585938 55.425781 205.773438 29.964844 214.660156 C 23.039062 217.078125 16.070312 219.507812 9.058594 221.878906 C 8.804688 222.832031 8.558594 223.789062 8.316406 224.75 C 15.875 222.203125 23.375 219.585938 30.78125 217.003906 C 56.167969 208.140625 82.421875 198.980469 109.164062 193.324219 Z M 459.734375 453.203125 L 455.117188 453.398438 C 427.042969 454.605469 400.523438 455.734375 374.625 443.78125 C 345.351562 430.269531 319.917969 408.828125 295.320312 388.089844 C 292.71875 385.894531 290.121094 383.707031 287.53125 381.535156 C 284.933594 379.355469 282.328125 377.164062 279.71875 374.964844 C 255.011719 354.132812 229.464844 332.589844 199.882812 318.9375 C 170.324219 305.292969 140.386719 306.304688 108.363281 322.023438 C 81.632812 335.144531 56.921875 354.9375 33.023438 374.082031 C 26.539062 379.277344 20.011719 384.503906 13.410156 389.625 C 13.679688 390.460938 13.953125 391.292969 14.230469 392.128906 C 21.078125 386.824219 27.847656 381.40625 34.574219 376.015625 C 58.367188 356.960938 82.972656 337.25 109.457031 324.25 C 140.769531 308.878906 170.007812 307.878906 198.84375 321.1875 C 228.121094 334.703125 253.539062 356.132812 278.121094 376.859375 C 280.734375 379.0625 283.335938 381.257812 285.9375 383.4375 C 288.527344 385.605469 291.121094 387.792969 293.722656 389.988281 C 318.445312 410.828125 344.007812 432.382812 373.585938 446.035156 C 392.164062 454.609375 410.929688 456.59375 430.289062 456.59375 C 438.484375 456.59375 446.785156 456.238281 455.222656 455.878906 L 459.839844 455.683594 C 487.855469 454.523438 516.28125 452.570312 543.769531 450.683594 C 547.320312 450.4375 550.886719 450.195312 554.457031 449.949219 C 554.964844 449.089844 555.46875 448.226562 555.96875 447.363281 C 551.832031 447.644531 547.707031 447.925781 543.597656 448.207031 C 516.125 450.09375 487.71875 452.046875 459.734375 453.203125 Z M 459.339844 398.011719 C 431.488281 401.101562 401.984375 403.03125 374.316406 390.035156 C 344.976562 376.253906 319.851562 354.039062 295.554688 332.554688 C 292.824219 330.140625 290.101562 327.734375 287.386719 325.351562 C 284.660156 322.957031 281.933594 320.546875 279.191406 318.125 C 254.78125 296.539062 229.539062 274.21875 199.871094 260.285156 C 171.917969 247.152344 142.003906 247.714844 108.421875 262.007812 C 81.5 273.464844 56.324219 290.652344 31.976562 307.277344 C 21.667969 314.3125 11.261719 321.414062 0.644531 328.132812 C 0.738281 329.050781 0.835938 329.96875 0.933594 330.882812 C 11.9375 323.953125 22.707031 316.605469 33.375 309.324219 C 57.625 292.769531 82.695312 275.652344 109.394531 264.289062 C 142.289062 250.292969 171.539062 249.714844 198.820312 262.53125 C 228.164062 276.3125 253.269531 298.511719 277.550781 319.980469 C 280.292969 322.40625 283.023438 324.820312 285.75 327.214844 C 288.464844 329.597656 291.183594 332 293.914062 334.414062 C 318.339844 356.011719 343.601562 378.347656 373.261719 392.277344 C 385.855469 398.195312 399.777344 401.519531 415.816406 402.445312 C 419.082031 402.636719 422.363281 402.71875 425.636719 402.71875 C 437.511719 402.71875 449.277344 401.625 459.613281 400.476562 C 488.050781 397.320312 516.394531 391.320312 543.804688 385.515625 C 557.488281 382.621094 571.332031 379.691406 585.304688 377.09375 C 585.542969 376.207031 585.78125 375.324219 586.011719 374.4375 C 571.621094 377.09375 557.371094 380.109375 543.292969 383.089844 C 515.9375 388.882812 487.65625 394.871094 459.339844 398.011719 Z M 198.726562 139 C 227.847656 152.84375 253.152344 174.347656 277.625 195.144531 C 280.164062 197.300781 282.691406 199.453125 285.222656 201.585938 C 287.742188 203.71875 290.269531 205.867188 292.800781 208.019531 C 317.40625 228.925781 342.847656 250.542969 372.25 264.519531 C 386.394531 271.242188 400.40625 274.582031 415.671875 274.582031 C 428.839844 274.582031 442.941406 272.09375 458.851562 267.148438 C 487.863281 258.125 515.441406 244.152344 542.117188 230.636719 C 555.464844 223.871094 568.96875 217.03125 582.761719 210.765625 C 582.515625 209.96875 582.269531 209.171875 582.019531 208.375 C 568.089844 214.699219 554.464844 221.597656 540.996094 228.425781 C 514.414062 241.894531 486.925781 255.820312 458.117188 264.777344 C 424.410156 275.257812 399.050781 274.511719 373.316406 262.28125 C 344.207031 248.441406 318.890625 226.929688 294.40625 206.128906 C 291.875 203.972656 289.347656 201.828125 286.820312 199.695312 C 284.296875 197.558594 281.765625 195.410156 279.230469 193.253906 C 254.636719 172.355469 229.203125 150.742188 199.792969 136.761719 C 167.578125 121.449219 135.644531 125.183594 108.652344 130.855469 C 84.570312 135.917969 60.878906 143.585938 37.851562 151.3125 C 37.242188 152.382812 36.644531 153.457031 36.050781 154.535156 C 59.820312 146.539062 84.3125 138.503906 109.164062 133.28125 C 135.75 127.695312 167.183594 124.003906 198.726562 139 Z M 459.695312 425.773438 L 457.609375 425.871094 C 429.695312 427.175781 400.824219 428.519531 374.589844 416.445312 C 345.257812 402.941406 320.003906 381.09375 295.585938 359.96875 C 292.890625 357.636719 290.207031 355.316406 287.527344 353.011719 L 283.578125 349.617188 C 258.152344 327.742188 231.867188 305.121094 203.199219 292.132812 C 170.597656 277.359375 139.578125 277.554688 108.367188 292.726562 C 81.617188 305.730469 56.871094 325.328125 32.9375 344.28125 C 24.253906 351.15625 15.507812 358.082031 6.601562 364.746094 C 6.800781 365.628906 7.007812 366.503906 7.214844 367.382812 C 16.441406 360.503906 25.496094 353.339844 34.476562 346.226562 C 58.304688 327.355469 82.945312 307.84375 109.453125 294.957031 C 139.957031 280.128906 170.289062 279.941406 202.175781 294.390625 C 230.519531 307.230469 256.667969 329.734375 281.960938 351.496094 L 285.910156 354.894531 C 288.589844 357.195312 291.269531 359.515625 293.960938 361.84375 C 318.511719 383.082031 343.898438 405.046875 373.554688 418.695312 C 391.957031 427.167969 411.484375 429.175781 431.058594 429.175781 C 439.972656 429.175781 448.898438 428.757812 457.722656 428.347656 L 459.8125 428.25 C 487.890625 426.949219 516.292969 424.199219 543.761719 421.542969 C 552.574219 420.691406 561.457031 419.832031 570.382812 419.015625 C 570.765625 418.15625 571.144531 417.289062 571.515625 416.425781 C 562.128906 417.277344 552.789062 418.179688 543.519531 419.074219 C 516.085938 421.726562 487.714844 424.472656 459.695312 425.773438 Z M 198.894531 67.632812 C 227.398438 76.472656 253.847656 91.859375 279.429688 106.742188 C 281.421875 107.902344 283.410156 109.058594 285.398438 110.214844 C 287.375 111.359375 289.355469 112.511719 291.339844 113.664062 C 317.050781 128.621094 343.640625 144.089844 372.414062 153.011719 C 388.277344 157.933594 404.246094 159.636719 419.949219 159.636719 C 433.101562 159.636719 446.074219 158.441406 458.632812 156.933594 C 487.117188 153.515625 515.625 147.734375 543.191406 142.144531 C 545.714844 141.632812 548.242188 141.117188 550.773438 140.605469 C 550.304688 139.855469 549.828125 139.109375 549.355469 138.363281 C 547.132812 138.8125 544.914062 139.261719 542.699219 139.710938 C 515.179688 145.292969 486.722656 151.066406 458.335938 154.472656 C 431.054688 157.746094 401.855469 159.546875 373.148438 150.644531 C 344.640625 141.804688 318.179688 126.410156 292.585938 111.519531 C 290.601562 110.367188 288.621094 109.214844 286.644531 108.066406 C 284.65625 106.914062 282.667969 105.757812 280.675781 104.597656 C 254.976562 89.648438 228.402344 74.1875 199.628906 65.265625 C 173.792969 57.257812 145.574219 56.667969 113.511719 63.46875 C 112.039062 64.625 110.578125 65.796875 109.128906 66.980469 C 109.148438 66.976562 109.167969 66.972656 109.191406 66.964844 C 142.847656 59.140625 172.1875 59.355469 198.894531 67.632812 Z M 290.28125 41.222656 C 316.816406 50.960938 344.253906 61.03125 372.566406 66.011719 C 393.253906 69.652344 414.851562 70.054688 435.738281 70.441406 C 443.203125 70.582031 450.925781 70.722656 458.4375 71.015625 C 469.628906 71.449219 480.894531 71.855469 492.144531 72.246094 C 491.136719 71.375 490.121094 70.515625 489.101562 69.65625 C 478.894531 69.300781 468.683594 68.929688 458.53125 68.535156 C 450.996094 68.242188 443.261719 68.101562 435.78125 67.960938 C 414.992188 67.578125 393.492188 67.175781 372.996094 63.570312 C 344.902344 58.625 317.566406 48.59375 291.136719 38.894531 L 286.449219 37.175781 C 260.503906 27.671875 234.6875 18.878906 208.332031 13.550781 C 206.691406 14.066406 205.058594 14.59375 203.429688 15.136719 C 231.179688 20.308594 258.3125 29.511719 285.59375 39.503906 Z M 109.160156 180.246094 C 136.726562 174.589844 168.921875 170.839844 198.699219 185.882812 C 228.050781 200.707031 252.746094 224.152344 276.632812 246.824219 C 279.488281 249.535156 282.332031 252.234375 285.171875 254.910156 C 288 257.570312 290.832031 260.261719 293.675781 262.960938 C 317.710938 285.773438 342.558594 309.359375 372.230469 324.34375 C 386.078125 331.339844 400.339844 334.828125 415.621094 334.828125 C 429.113281 334.828125 443.402344 332.109375 458.898438 326.675781 C 488.09375 316.445312 515.175781 299.671875 541.363281 283.449219 C 558.019531 273.132812 574.921875 262.667969 592.519531 253.816406 C 592.390625 252.953125 592.257812 252.09375 592.121094 251.234375 C 574.1875 260.207031 556.996094 270.847656 540.058594 281.339844 C 513.980469 297.492188 487.019531 314.195312 458.078125 324.335938 C 425.707031 335.679688 398.785156 334.976562 373.347656 322.132812 C 344.003906 307.3125 319.285156 283.851562 295.382812 261.160156 C 292.539062 258.460938 289.703125 255.769531 286.871094 253.105469 C 284.035156 250.433594 281.191406 247.734375 278.339844 245.023438 C 254.324219 222.226562 229.492188 198.65625 199.816406 183.667969 C 186.285156 176.835938 171.578125 173.292969 154.851562 172.84375 C 141.613281 172.484375 126.929688 174.070312 108.660156 177.816406 C 81.808594 183.320312 55.414062 192.019531 29.890625 200.429688 C 24.5625 202.183594 19.210938 203.945312 13.832031 205.6875 C 13.515625 206.652344 13.207031 207.625 12.902344 208.59375 C 18.855469 206.675781 24.773438 204.726562 30.664062 202.785156 C 56.125 194.394531 82.449219 185.722656 109.160156 180.246094 Z M 200.066406 51.363281 C 227.65625 58.375 254.160156 70.375 285.460938 86.230469 L 290.617188 88.847656 C 316.730469 102.105469 343.734375 115.8125 372.46875 123.375 C 388.960938 127.714844 405.835938 129.085938 423.019531 129.085938 C 434.734375 129.085938 446.589844 128.445312 458.5625 127.679688 C 484.652344 126.003906 510.964844 122.9375 536.570312 119.851562 C 536 119.082031 535.417969 118.320312 534.839844 117.5625 C 509.71875 120.585938 483.941406 123.566406 458.40625 125.203125 C 429.070312 127.085938 400.476562 128.175781 373.097656 120.976562 C 344.621094 113.484375 317.738281 99.832031 291.742188 86.636719 L 286.582031 84.015625 C 255.132812 68.085938 228.488281 56.027344 200.679688 48.960938 C 181.140625 43.996094 162.183594 41.960938 143.390625 42.835938 C 141.886719 43.742188 140.398438 44.660156 138.914062 45.59375 C 158.96875 44.148438 179.183594 46.054688 200.066406 51.363281 Z M 397.011719 17 C 394.007812 15.9375 390.984375 14.925781 387.9375 13.957031 C 382.914062 13.601562 377.898438 13.167969 372.921875 12.597656 C 351.402344 10.128906 329.980469 5.382812 308.996094 0.214844 C 305.3125 0.0742188 301.609375 0.00390625 297.894531 0 C 322.289062 6.15625 347.363281 12.160156 372.640625 15.0625 C 380.722656 15.988281 388.890625 16.566406 397.011719 17 Z M 289.984375 64.476562 C 316.464844 76.015625 343.851562 87.945312 372.519531 94.183594 C 391.5625 98.324219 411.324219 99.128906 430.882812 99.128906 C 437.179688 99.128906 443.460938 99.046875 449.683594 98.964844 C 452.628906 98.925781 455.570312 98.886719 458.496094 98.855469 C 478.234375 98.652344 498.175781 98 517.863281 97.230469 C 517.128906 96.429688 516.394531 95.628906 515.652344 94.835938 C 496.667969 95.566406 477.472656 96.179688 458.472656 96.375 C 455.539062 96.40625 452.597656 96.445312 449.652344 96.484375 C 424.226562 96.820312 397.945312 97.171875 373.046875 91.757812 C 344.617188 85.574219 317.347656 73.695312 290.972656 62.203125 L 286.515625 60.261719 C 249.972656 44.367188 213.582031 30.089844 174.695312 26.363281 C 173.171875 27.050781 171.65625 27.757812 170.148438 28.472656 C 210.347656 31.488281 247.851562 46.148438 285.527344 62.535156 Z M 198.839844 85.957031 C 227.667969 96.34375 253.949219 113.554688 279.363281 130.199219 C 281.359375 131.507812 283.351562 132.8125 285.34375 134.109375 C 287.324219 135.40625 289.304688 136.703125 291.289062 138.003906 C 316.839844 154.734375 343.257812 172.035156 372.363281 182.523438 C 383.375 186.492188 397.035156 190.078125 417.300781 190.078125 C 428.753906 190.078125 442.316406 188.933594 458.699219 186.0625 C 487.320312 181.042969 515.636719 172.980469 543.019531 165.179688 C 549.25 163.40625 555.515625 161.621094 561.8125 159.863281 C 561.417969 159.117188 561.019531 158.367188 560.621094 157.625 C 554.496094 159.332031 548.402344 161.070312 542.339844 162.796875 C 515.019531 170.578125 486.765625 178.625 458.269531 183.617188 C 413.476562 191.46875 390.132812 186.292969 373.203125 180.191406 C 344.375 169.800781 318.078125 152.582031 292.648438 135.925781 C 290.664062 134.625 288.679688 133.328125 286.699219 132.035156 C 284.710938 130.734375 282.71875 129.429688 280.722656 128.125 C 255.1875 111.402344 228.78125 94.109375 199.679688 83.621094 C 173.019531 74.015625 144.089844 73.277344 108.636719 81.296875 C 101.390625 82.933594 94.191406 84.828125 87.035156 86.886719 C 85.828125 88.089844 84.632812 89.300781 83.445312 90.523438 C 91.964844 87.980469 100.546875 85.667969 109.183594 83.714844 C 144.152344 75.804688 172.644531 76.515625 198.839844 85.957031 Z M 289.78125 18.765625 C 316.605469 26.972656 344.34375 35.460938 372.609375 39.445312 C 389.664062 41.851562 407.246094 42.449219 424.246094 43.027344 C 434.074219 43.363281 444.195312 43.707031 454.160156 44.398438 C 452.640625 43.460938 451.113281 42.535156 449.578125 41.621094 C 441.128906 41.121094 432.625 40.832031 424.332031 40.550781 C 407.394531 39.972656 389.878906 39.378906 372.957031 36.992188 C 344.882812 33.035156 317.238281 24.574219 290.503906 16.394531 L 286.382812 15.132812 C 273.542969 11.207031 260.746094 7.433594 247.949219 4.09375 C 245.972656 4.425781 244.007812 4.777344 242.046875 5.144531 C 256.566406 8.789062 271.082031 13.050781 285.660156 17.503906 Z M 459.484375 405.90625 C 429.824219 408.390625 400.996094 409.601562 374.429688 397.230469 C 345.089844 383.570312 319.917969 361.5 295.574219 340.15625 C 292.855469 337.773438 290.148438 335.398438 287.445312 333.046875 C 284.734375 330.6875 282.019531 328.308594 279.296875 325.917969 C 254.839844 304.472656 229.546875 282.296875 199.878906 268.484375 C 171.515625 255.28125 141.59375 256.140625 108.398438 271.117188 C 81.527344 283.246094 56.511719 301.375 32.316406 318.90625 C 22.371094 326.113281 12.339844 333.378906 2.101562 340.289062 C 2.230469 341.199219 2.363281 342.105469 2.5 343.007812 C 13.109375 335.886719 23.488281 328.371094 33.773438 320.914062 C 57.863281 303.457031 82.777344 285.402344 109.417969 273.378906 C 141.914062 258.714844 171.164062 257.851562 198.832031 270.734375 C 228.179688 284.394531 253.335938 306.453125 277.660156 327.78125 C 280.386719 330.171875 283.105469 332.554688 285.816406 334.917969 C 288.515625 337.269531 291.222656 339.640625 293.9375 342.019531 C 318.414062 363.480469 343.71875 385.667969 373.382812 399.476562 C 390.851562 407.613281 409.171875 410.003906 428.023438 410.003906 C 438.4375 410.003906 449.015625 409.273438 459.691406 408.378906 C 487.917969 406.011719 516.234375 401.296875 543.617188 396.738281 C 556.039062 394.667969 568.59375 392.578125 581.238281 390.691406 C 581.523438 389.816406 581.800781 388.941406 582.078125 388.0625 C 569.003906 389.996094 556.039062 392.152344 543.210938 394.289062 C 515.875 398.84375 487.609375 403.550781 459.484375 405.90625 Z M 459.171875 391.003906 C 431.253906 395.007812 401.640625 396.914062 374.191406 383.886719 C 344.851562 369.964844 319.773438 347.589844 295.523438 325.953125 C 292.777344 323.503906 290.046875 321.066406 287.316406 318.648438 C 284.578125 316.222656 281.835938 313.777344 279.082031 311.320312 C 254.722656 289.582031 229.53125 267.101562 199.863281 253.027344 C 172.339844 239.964844 142.4375 240.164062 108.453125 253.632812 C 81.484375 264.320312 56.140625 280.472656 31.632812 296.089844 C 21.117188 302.789062 10.507812 309.546875 -0.3125 315.925781 C -0.257812 316.851562 -0.199219 317.777344 -0.136719 318.703125 C 11.085938 312.121094 22.078125 305.121094 32.964844 298.183594 C 57.375 282.625 82.621094 266.539062 109.367188 255.9375 C 142.675781 242.738281 171.929688 242.515625 198.800781 255.265625 C 228.144531 269.191406 253.199219 291.546875 277.433594 313.167969 C 280.1875 315.628906 282.933594 318.078125 285.671875 320.503906 C 288.398438 322.921875 291.128906 325.355469 293.871094 327.800781 C 318.253906 349.558594 343.464844 372.054688 373.128906 386.128906 C 385.902344 392.191406 399.835938 395.519531 415.726562 396.300781 C 418.246094 396.425781 420.769531 396.484375 423.277344 396.480469 C 436.503906 396.480469 449.363281 394.914062 459.523438 393.460938 C 488.066406 389.367188 516.308594 381.988281 543.617188 374.851562 C 558.441406 370.980469 573.449219 367.058594 588.640625 363.632812 C 588.839844 362.742188 589.035156 361.851562 589.226562 360.957031 C 573.617188 364.449219 558.207031 368.476562 542.992188 372.453125 C 515.746094 379.574219 487.574219 386.933594 459.171875 391.003906 Z M 458.996094 384.53125 C 431.6875 389.394531 402.5 392.015625 374.058594 378.371094 C 344.722656 364.296875 319.699219 341.757812 295.5 319.960938 C 292.738281 317.476562 289.992188 315 287.246094 312.542969 C 284.492188 310.082031 281.734375 307.597656 278.964844 305.105469 C 254.65625 283.203125 229.515625 260.558594 199.855469 246.332031 C 172.785156 233.347656 142.898438 233.140625 108.484375 245.699219 C 81.488281 255.550781 55.972656 270.601562 31.296875 285.160156 C 20.734375 291.390625 10.074219 297.671875 -0.777344 303.59375 C -0.761719 304.527344 -0.746094 305.457031 -0.71875 306.386719 C 10.550781 300.273438 21.605469 293.753906 32.554688 287.296875 C 57.132812 272.796875 82.550781 257.804688 109.335938 248.027344 C 143.089844 235.710938 172.347656 235.886719 198.78125 248.566406 C 228.121094 262.640625 253.125 285.164062 277.308594 306.945312 C 280.078125 309.441406 282.835938 311.929688 285.59375 314.394531 C 288.335938 316.84375 291.082031 319.320312 293.839844 321.804688 C 318.167969 343.71875 343.328125 366.378906 372.984375 380.605469 C 385.953125 386.828125 399.90625 390.15625 415.640625 390.777344 C 417.445312 390.851562 419.277344 390.886719 421.144531 390.886719 C 432.234375 390.886719 444.570312 389.617188 459.429688 386.972656 C 488.082031 381.867188 516.195312 373.046875 543.382812 364.515625 C 559.136719 359.570312 575.101562 354.566406 591.3125 350.242188 C 591.46875 349.34375 591.625 348.449219 591.773438 347.550781 C 575.140625 351.949219 558.78125 357.082031 542.640625 362.148438 C 515.527344 370.65625 487.492188 379.453125 458.996094 384.53125 Z M 457.261719 482.722656 C 428.566406 483.824219 401.464844 484.859375 374.464844 473.339844 C 345.382812 460.9375 319.386719 441.472656 294.242188 422.648438 C 291.960938 420.9375 289.683594 419.234375 287.410156 417.539062 C 285.132812 415.839844 282.851562 414.132812 280.566406 412.421875 C 255.316406 393.515625 229.203125 373.964844 199.847656 361.445312 C 169.628906 348.554688 141.425781 349.410156 108.402344 364.214844 C 81.496094 376.28125 56.378906 393.972656 32.089844 411.082031 C 29.304688 413.042969 26.511719 415.007812 23.710938 416.972656 C 24.046875 417.746094 24.386719 418.519531 24.726562 419.289062 C 27.667969 417.230469 30.597656 415.167969 33.519531 413.109375 C 57.710938 396.066406 82.730469 378.445312 109.417969 366.480469 C 141.753906 351.976562 169.34375 351.128906 198.875 363.726562 C 227.957031 376.128906 253.945312 395.589844 279.078125 414.40625 C 281.367188 416.117188 283.648438 417.828125 285.925781 419.527344 C 288.199219 421.222656 290.476562 422.925781 292.753906 424.632812 C 318.015625 443.542969 344.136719 463.101562 373.488281 475.621094 C 393.015625 483.949219 412.46875 485.839844 432.476562 485.839844 C 440.660156 485.839844 448.941406 485.523438 457.355469 485.203125 L 459.707031 485.113281 C 484.160156 484.183594 508.9375 482.742188 533.132812 481.273438 C 533.804688 480.40625 534.472656 479.539062 535.136719 478.664062 C 510.273438 480.179688 484.769531 481.679688 459.613281 482.632812 Z M 458.8125 378.234375 C 433.335938 383.679688 403.324219 387.324219 373.921875 373.0625 C 344.585938 358.835938 319.621094 336.128906 295.472656 314.167969 C 292.695312 311.644531 289.933594 309.128906 287.171875 306.640625 C 284.40625 304.140625 281.636719 301.621094 278.855469 299.09375 C 254.59375 277.027344 229.507812 254.210938 199.84375 239.824219 C 173.265625 226.933594 143.394531 226.308594 108.519531 237.914062 C 81.503906 246.90625 55.816406 260.832031 30.976562 274.296875 C 20.527344 279.960938 9.980469 285.675781 -0.738281 291.0625 C -0.761719 291.996094 -0.78125 292.929688 -0.792969 293.863281 C 10.355469 288.292969 21.308594 282.359375 32.160156 276.476562 C 56.90625 263.0625 82.492188 249.191406 109.300781 240.269531 C 143.53125 228.878906 172.792969 229.460938 198.761719 242.054688 C 228.101562 256.285156 253.054688 278.980469 277.1875 300.929688 C 279.96875 303.457031 282.742188 305.980469 285.511719 308.480469 C 288.269531 310.96875 291.03125 313.480469 293.804688 316.003906 C 318.082031 338.082031 343.183594 360.910156 372.839844 375.292969 C 388.515625 382.898438 404.3125 385.535156 419.511719 385.535156 C 433.476562 385.535156 446.933594 383.308594 459.332031 380.660156 C 488.097656 374.507812 516.0625 364.230469 543.109375 354.292969 C 559.589844 348.234375 576.304688 342.09375 593.351562 336.839844 C 593.46875 335.941406 593.578125 335.042969 593.683594 334.144531 C 576.21875 339.484375 559.117188 345.765625 542.253906 351.964844 C 515.289062 361.875 487.40625 372.121094 458.8125 378.234375 Z M 457.125 497.113281 C 428.480469 498.113281 401.425781 499.0625 374.324219 488.472656 C 345.351562 477.148438 319.015625 459.144531 293.542969 441.730469 C 291.464844 440.308594 289.386719 438.890625 287.3125 437.476562 C 285.234375 436.0625 283.15625 434.640625 281.074219 433.214844 C 255.496094 415.730469 229.046875 397.648438 199.804688 386.222656 C 169.628906 374.429688 141.449219 375.207031 108.4375 388.753906 C 81.480469 399.816406 56.113281 416.035156 31.582031 431.722656 C 31.332031 431.878906 31.085938 432.039062 30.835938 432.195312 C 31.210938 432.9375 31.585938 433.679688 31.964844 434.417969 C 32.28125 434.214844 32.597656 434.011719 32.917969 433.8125 C 57.355469 418.183594 82.628906 402.027344 109.378906 391.050781 C 141.757812 377.761719 169.367188 376.984375 198.902344 388.53125 C 227.878906 399.855469 254.210938 417.855469 279.671875 435.265625 C 281.757812 436.6875 283.835938 438.109375 285.914062 439.527344 C 287.988281 440.941406 290.066406 442.359375 292.144531 443.777344 C 317.730469 461.269531 344.183594 479.355469 373.421875 490.78125 C 393.011719 498.4375 412.457031 500.171875 432.441406 500.171875 C 440.59375 500.171875 448.835938 499.882812 457.210938 499.589844 L 459.601562 499.507812 C 479.78125 498.808594 500.175781 497.785156 520.289062 496.699219 C 521.058594 495.835938 521.824219 494.964844 522.585938 494.089844 C 501.699219 495.230469 480.484375 496.300781 459.515625 497.027344 Z M 458.636719 371.761719 C 433.617188 377.980469 403.96875 382.339844 373.789062 367.546875 C 344.453125 353.164062 319.535156 330.289062 295.4375 308.167969 C 292.648438 305.609375 289.871094 303.058594 287.097656 300.535156 C 284.316406 298 281.53125 295.441406 278.734375 292.875 C 254.527344 270.648438 229.492188 247.667969 199.832031 233.128906 C 173.773438 220.355469 143.914062 219.328125 108.550781 229.984375 C 81.535156 238.125 55.6875 250.933594 30.691406 263.316406 C 20.515625 268.359375 10.253906 273.441406 -0.160156 278.242188 C -0.222656 279.175781 -0.277344 280.113281 -0.332031 281.050781 C 10.519531 276.074219 21.203125 270.785156 31.789062 265.539062 C 56.695312 253.199219 82.449219 240.441406 109.265625 232.359375 C 144.003906 221.890625 173.269531 222.871094 198.742188 235.355469 C 228.078125 249.738281 252.976562 272.59375 277.058594 294.699219 C 279.855469 297.269531 282.644531 299.832031 285.429688 302.367188 C 288.199219 304.890625 290.972656 307.4375 293.757812 309.992188 C 317.988281 332.234375 343.039062 355.234375 372.695312 369.773438 C 388.132812 377.339844 403.394531 380.019531 417.976562 380.019531 C 432.578125 380.019531 446.5 377.332031 459.234375 374.167969 C 488.105469 366.996094 515.914062 355.292969 542.808594 343.976562 C 559.824219 336.8125 577.089844 329.554688 594.773438 323.386719 C 594.851562 322.484375 594.921875 321.585938 594.992188 320.679688 C 576.882812 326.945312 559.234375 334.371094 541.84375 341.6875 C 515.039062 352.96875 487.320312 364.632812 458.636719 371.761719 Z M 458.472656 364.757812 C 423.570312 374.550781 398.207031 373.546875 373.660156 361.398438 C 344.328125 346.878906 319.460938 323.847656 295.414062 301.574219 C 292.609375 298.980469 289.816406 296.394531 287.03125 293.832031 C 284.234375 291.265625 281.4375 288.671875 278.625 286.066406 C 254.464844 263.691406 229.480469 240.550781 199.824219 225.871094 C 173.957031 213.0625 144.960938 211.710938 108.582031 221.609375 C 81.578125 228.957031 55.582031 240.691406 30.441406 252.039062 C 20.726562 256.425781 10.929688 260.84375 1.011719 265.039062 C 0.90625 265.980469 0.800781 266.917969 0.707031 267.859375 C 11.078125 263.5 21.3125 258.882812 31.460938 254.300781 C 56.511719 242.992188 82.417969 231.300781 109.234375 224.003906 C 144.996094 214.273438 173.429688 215.574219 198.722656 228.09375 C 228.058594 242.613281 252.910156 265.628906 276.941406 287.886719 C 279.753906 290.492188 282.554688 293.085938 285.351562 295.660156 C 288.136719 298.21875 290.925781 300.800781 293.726562 303.394531 C 317.90625 325.789062 342.90625 348.941406 372.5625 363.621094 C 386.09375 370.320312 400.121094 373.652344 415.449219 373.816406 C 415.851562 373.820312 416.253906 373.824219 416.660156 373.824219 C 429.402344 373.824219 442.945312 371.691406 459.144531 367.144531 C 488.105469 359.019531 515.75 345.972656 542.484375 333.355469 C 559.84375 325.160156 577.464844 316.847656 595.601562 309.824219 C 595.636719 308.929688 595.660156 308.03125 595.6875 307.132812 C 577.136719 314.261719 559.148438 322.75 541.425781 331.113281 C 514.785156 343.683594 487.234375 356.6875 458.472656 364.757812 Z M 109.183594 204.78125 C 157.667969 193.84375 183.492188 202.730469 198.699219 210.371094 C 228.039062 225.109375 252.804688 248.394531 276.75 270.910156 C 279.585938 273.574219 282.410156 276.230469 285.230469 278.859375 C 288.039062 281.480469 290.851562 284.125 293.675781 286.78125 C 317.769531 309.433594 342.683594 332.855469 372.34375 347.757812 C 386.019531 354.625 399.972656 358.046875 415.183594 358.046875 C 428.589844 358.046875 442.972656 355.390625 458.988281 350.09375 C 488.09375 340.472656 515.421875 325.148438 541.851562 310.332031 C 559.300781 300.550781 577.011719 290.625 595.390625 282.269531 C 595.34375 281.382812 595.296875 280.496094 595.242188 279.613281 C 576.46875 288.085938 558.417969 298.199219 540.640625 308.167969 C 514.3125 322.929688 487.089844 338.191406 458.210938 347.738281 C 424.683594 358.820312 398.546875 358.144531 373.457031 345.539062 C 344.121094 330.804688 319.339844 307.503906 295.375 284.972656 C 292.546875 282.316406 289.734375 279.667969 286.921875 277.046875 C 284.105469 274.417969 281.285156 271.765625 278.449219 269.101562 C 254.371094 246.464844 229.476562 223.058594 199.8125 208.152344 C 184.265625 200.34375 157.898438 191.242188 108.636719 202.363281 C 81.691406 208.445312 55.453125 218.328125 30.078125 227.886719 C 21.941406 230.953125 13.742188 234.039062 5.480469 237.015625 C 5.28125 237.960938 5.089844 238.910156 4.902344 239.859375 C 13.660156 236.722656 22.335938 233.453125 30.953125 230.210938 C 56.25 220.679688 82.40625 210.824219 109.183594 204.78125 Z M 109.160156 149.382812 C 136.140625 143.796875 167.875 140.15625 198.707031 155.480469 C 227.921875 170 252.964844 192.496094 277.183594 214.25 C 279.859375 216.65625 282.53125 219.050781 285.195312 221.433594 C 287.851562 223.804688 290.515625 226.195312 293.183594 228.59375 C 317.539062 250.46875 342.722656 273.085938 372.230469 287.75 C 386.421875 294.804688 400.398438 298.3125 415.523438 298.3125 C 428.792969 298.308594 442.945312 295.609375 458.878906 290.230469 C 487.980469 280.414062 515.328125 265.007812 541.773438 250.105469 C 556.558594 241.777344 571.535156 233.339844 586.945312 225.820312 C 586.738281 225 586.535156 224.179688 586.324219 223.363281 C 570.695312 230.964844 555.53125 239.507812 540.554688 247.945312 C 514.210938 262.789062 486.96875 278.136719 458.089844 287.882812 C 424.679688 299.15625 399.332031 298.453125 373.335938 285.53125 C 344.128906 271.015625 319.074219 248.511719 294.84375 226.746094 C 292.171875 224.347656 289.507812 221.953125 286.847656 219.582031 C 284.183594 217.203125 281.515625 214.808594 278.839844 212.40625 C 254.5 190.539062 229.328125 167.929688 199.8125 153.261719 C 168.304688 137.597656 136.050781 141.285156 108.660156 146.953125 C 81.808594 152.507812 55.417969 161.246094 29.894531 169.695312 C 29.246094 169.910156 28.59375 170.125 27.945312 170.339844 C 27.457031 171.367188 26.972656 172.398438 26.496094 173.429688 C 27.890625 172.96875 29.28125 172.507812 30.675781 172.046875 C 56.128906 163.621094 82.453125 154.910156 109.160156 149.382812 Z M 109.207031 214.910156 C 145.53125 205.960938 173.972656 207.542969 198.707031 219.890625 C 228.046875 234.535156 252.851562 257.691406 276.839844 280.089844 C 279.664062 282.726562 282.476562 285.355469 285.285156 287.957031 C 288.082031 290.546875 290.886719 293.160156 293.699219 295.789062 C 317.832031 318.320312 342.789062 341.621094 372.441406 356.421875 C 386.089844 363.234375 400.152344 366.625 415.644531 366.625 C 428.863281 366.625 443.125 364.15625 459.0625 359.238281 C 488.101562 350.277344 515.582031 336.011719 542.160156 322.210938 C 559.664062 313.125 577.433594 303.90625 595.804688 296.136719 C 595.800781 295.242188 595.789062 294.347656 595.777344 293.457031 C 577 301.339844 558.871094 310.746094 541.019531 320.011719 C 514.539062 333.757812 487.15625 347.972656 458.328125 356.867188 C 424.378906 367.34375 398.230469 366.523438 373.550781 354.203125 C 344.21875 339.5625 319.394531 316.386719 295.390625 293.976562 C 292.574219 291.347656 289.769531 288.730469 286.972656 286.136719 C 284.164062 283.535156 281.355469 280.910156 278.53125 278.277344 C 254.414062 255.757812 229.476562 232.476562 199.816406 217.671875 C 174.523438 205.042969 145.542969 203.402344 108.613281 212.503906 C 81.632812 219.148438 55.503906 229.894531 30.234375 240.289062 C 21.1875 244.011719 12.066406 247.761719 2.851562 251.34375 C 2.703125 252.285156 2.558594 253.226562 2.417969 254.171875 C 12.105469 250.425781 21.679688 246.488281 31.179688 242.582031 C 56.363281 232.222656 82.40625 221.511719 109.207031 214.910156 Z M 456.214844 511.375 C 427.859375 512.261719 401.078125 513.101562 374.160156 503.773438 C 345.289062 493.765625 318.578125 477.46875 292.746094 461.710938 L 281.632812 454.941406 C 255.695312 439.117188 228.875 422.757812 199.75 412.660156 C 170 402.347656 141 403.066406 108.484375 414.914062 C 84.605469 423.617188 61.785156 436 39.671875 448.472656 C 40.089844 449.1875 40.507812 449.902344 40.929688 450.609375 C 62.945312 438.195312 85.648438 425.878906 109.332031 417.246094 C 141.28125 405.601562 169.753906 404.890625 198.9375 415.003906 C 227.8125 425.011719 254.515625 441.300781 280.34375 457.058594 L 291.453125 463.828125 C 317.394531 479.65625 344.222656 496.019531 373.347656 506.113281 C 392.757812 512.839844 411.988281 514.367188 431.738281 514.367188 C 439.820312 514.367188 447.992188 514.113281 456.292969 513.851562 L 459.480469 513.753906 C 474.839844 513.28125 490.328125 512.640625 505.722656 511.933594 C 506.609375 511.070312 507.488281 510.203125 508.363281 509.328125 C 492.070312 510.085938 475.664062 510.773438 459.402344 511.273438 Z M 289.789062 567.085938 L 286.425781 566.390625 C 242.851562 557.394531 192.15625 548.875 138.136719 550.535156 C 139.40625 551.339844 140.683594 552.136719 141.96875 552.921875 C 194.335938 551.769531 243.511719 560.0625 285.921875 568.820312 L 289.285156 569.515625 C 316.550781 575.148438 344.742188 580.976562 372.96875 583.460938 C 376.300781 583.753906 379.644531 583.996094 382.996094 584.191406 C 385.300781 583.5 387.589844 582.789062 389.867188 582.046875 C 384.28125 581.816406 378.714844 581.480469 373.1875 580.992188 C 345.101562 578.519531 316.980469 572.707031 289.789062 567.085938 Z M 373.371094 565.625 C 345.261719 561.820312 317.445312 553.949219 290.546875 546.335938 L 286.582031 545.214844 C 222.46875 527.09375 167.6875 516.839844 108.722656 525.730469 C 107.515625 525.914062 106.304688 526.109375 105.097656 526.300781 C 105.9375 527.011719 106.78125 527.714844 107.628906 528.414062 C 108.117188 528.339844 108.605469 528.257812 109.09375 528.183594 C 167.617188 519.363281 222.101562 529.566406 285.90625 547.601562 L 289.871094 548.722656 C 316.855469 556.359375 344.753906 564.253906 373.039062 568.082031 C 388.308594 570.148438 403.859375 570.691406 419.296875 570.703125 C 421.113281 569.890625 422.925781 569.054688 424.722656 568.207031 C 407.597656 568.316406 390.285156 567.914062 373.371094 565.625 Z M 192.476562 577.609375 C 195.191406 578.632812 197.921875 579.613281 200.671875 580.554688 C 227.273438 582.167969 255.441406 585.046875 285.945312 589.246094 C 301.605469 591.398438 317.339844 593.125 333.117188 594.515625 C 336.886719 594.066406 340.632812 593.546875 344.355469 592.957031 C 324.917969 591.445312 305.542969 589.4375 286.28125 586.785156 C 252.511719 582.140625 221.585938 579.101562 192.476562 577.609375 Z M 459.6875 468.039062 L 456.621094 468.164062 C 428.105469 469.328125 401.175781 470.425781 374.566406 458.425781 C 345.386719 445.265625 319.691406 424.640625 294.839844 404.691406 C 292.382812 402.722656 289.933594 400.753906 287.484375 398.796875 C 285.03125 396.839844 282.578125 394.867188 280.117188 392.894531 C 255.15625 372.855469 229.347656 352.136719 199.875 338.84375 C 169.996094 325.371094 140.921875 326.3125 108.375 341.804688 C 81.550781 354.574219 56.65625 373.476562 32.582031 391.753906 C 27.742188 395.429688 22.878906 399.121094 17.980469 402.777344 C 18.28125 403.585938 18.585938 404.386719 18.894531 405.191406 C 23.988281 401.390625 29.046875 397.550781 34.082031 393.730469 C 58.054688 375.527344 82.847656 356.707031 109.441406 344.046875 C 141.28125 328.886719 169.695312 327.957031 198.855469 341.105469 C 228.039062 354.269531 253.726562 374.886719 278.566406 394.828125 C 281.027344 396.804688 283.484375 398.773438 285.9375 400.734375 C 288.382812 402.6875 290.832031 404.65625 293.289062 406.625 C 318.257812 426.671875 344.078125 447.398438 373.546875 460.6875 C 392.75 469.347656 411.988281 471.324219 431.800781 471.324219 C 439.996094 471.324219 448.292969 470.988281 456.722656 470.644531 L 459.789062 470.519531 C 487.804688 469.390625 516.238281 467.53125 543.734375 465.726562 C 543.980469 465.710938 544.226562 465.695312 544.472656 465.679688 C 545.058594 464.816406 545.640625 463.949219 546.21875 463.082031 C 545.335938 463.136719 544.453125 463.195312 543.574219 463.253906 C 516.09375 465.054688 487.675781 466.914062 459.6875 468.039062 Z M 373.570312 550.164062 C 345.417969 544.894531 317.960938 534.898438 291.410156 525.230469 L 286.742188 523.535156 C 229.40625 502.695312 172.640625 485.070312 108.660156 498.109375 C 99.703125 499.933594 90.796875 502.132812 81.957031 504.554688 C 82.609375 505.234375 83.261719 505.914062 83.917969 506.585938 C 92.28125 504.316406 100.699219 502.261719 109.15625 500.539062 C 172.503906 487.628906 228.90625 505.152344 285.894531 525.867188 L 290.5625 527.5625 C 317.207031 537.265625 344.761719 547.296875 373.113281 552.601562 C 390.25 555.8125 407.742188 556.578125 425.078125 556.578125 C 432.558594 556.578125 440.011719 556.433594 447.390625 556.285156 C 448.839844 555.441406 450.28125 554.585938 451.714844 553.71875 C 450.792969 553.738281 449.867188 553.753906 448.941406 553.773438 C 424.089844 554.28125 398.386719 554.8125 373.570312 550.164062 Z M 454.894531 525.535156 C 426.960938 526.296875 400.578125 527.015625 373.972656 519.1875 C 345.390625 510.78125 318.460938 496.480469 292.417969 482.65625 L 287.054688 479.808594 C 256.769531 463.765625 229.398438 449.84375 201.105469 441.90625 C 168.585938 432.78125 138.308594 432.878906 108.539062 442.199219 C 88.6875 448.414062 69.421875 456.925781 50.648438 465.875 C 51.121094 466.566406 51.59375 467.261719 52.070312 467.949219 C 70.648438 459.097656 89.699219 450.695312 109.28125 444.566406 C 138.574219 435.390625 168.390625 435.304688 200.433594 444.292969 C 228.492188 452.164062 255.738281 466.027344 285.894531 482 L 291.253906 484.84375 C 317.40625 498.730469 344.449219 513.089844 373.269531 521.566406 C 392.339844 527.175781 411.203125 528.460938 430.558594 528.460938 C 438.589844 528.460938 446.710938 528.238281 454.960938 528.015625 L 459.34375 527.894531 C 469.230469 527.636719 479.175781 527.3125 489.117188 526.953125 C 490.136719 526.09375 491.15625 525.230469 492.164062 524.359375 C 481.1875 524.765625 470.199219 525.128906 459.277344 525.417969 Z M 452.363281 539.65625 C 426.433594 540.265625 399.621094 540.902344 373.773438 534.667969 C 345.269531 527.796875 317.925781 515.542969 291.484375 503.691406 L 286.902344 501.640625 C 226.730469 474.710938 171.777344 453.75 108.597656 470.097656 C 93.621094 473.96875 78.890625 479.011719 64.410156 484.507812 C 64.953125 485.191406 65.5 485.867188 66.050781 486.542969 C 80.214844 481.183594 94.613281 476.277344 109.21875 472.496094 C 171.625 456.351562 226.152344 477.167969 285.890625 503.902344 L 290.46875 505.953125 C 317.015625 517.851562 344.464844 530.15625 373.191406 537.082031 C 391.503906 541.496094 410.207031 542.507812 428.730469 542.507812 C 436.675781 542.507812 444.589844 542.320312 452.421875 542.136719 C 454.679688 542.082031 456.941406 542.03125 459.199219 541.980469 C 462.789062 541.902344 466.390625 541.816406 469.992188 541.726562 C 471.1875 540.878906 472.378906 540.015625 473.5625 539.148438 C 468.75 539.277344 463.941406 539.398438 459.144531 539.5 C 456.882812 539.550781 454.625 539.605469 452.363281 539.65625 Z M 459.609375 415.042969 C 432.585938 416.699219 401.953125 418.578125 374.519531 405.894531 C 345.183594 392.328125 319.96875 370.382812 295.585938 349.160156 C 292.878906 346.808594 290.183594 344.460938 287.492188 342.136719 C 284.796875 339.804688 282.097656 337.457031 279.390625 335.097656 C 254.886719 313.773438 229.550781 291.71875 199.882812 278 C 171.132812 264.707031 141.199219 265.773438 108.378906 281.261719 C 81.566406 293.914062 56.695312 312.859375 32.640625 331.179688 C 23.234375 338.339844 13.75 345.558594 4.078125 352.460938 C 4.242188 353.359375 4.410156 354.257812 4.582031 355.152344 C 14.601562 348.03125 24.414062 340.558594 34.144531 333.152344 C 58.09375 314.910156 82.859375 296.046875 109.4375 283.503906 C 141.550781 268.347656 170.796875 267.285156 198.84375 280.25 C 228.191406 293.820312 253.390625 315.757812 277.761719 336.96875 C 280.472656 339.328125 283.175781 341.679688 285.871094 344.011719 C 288.558594 346.335938 291.253906 348.679688 293.957031 351.03125 C 318.472656 372.367188 343.824219 394.429688 373.480469 408.144531 C 391.722656 416.578125 411.21875 418.714844 430.152344 418.710938 C 440.277344 418.710938 450.242188 418.101562 459.761719 417.519531 C 487.902344 415.792969 516.269531 412.167969 543.707031 408.664062 C 554.488281 407.289062 565.371094 405.902344 576.320312 404.617188 C 576.648438 403.75 576.972656 402.878906 577.296875 402.007812 C 565.910156 403.332031 554.597656 404.773438 543.390625 406.203125 C 515.996094 409.703125 487.667969 413.324219 459.609375 415.042969 Z M 459.609375 415.042969 " fill-opacity="1" fill-rule="nonzero"/></g></g></g></g></g></svg>